<?xml version="1.0" encoding="UTF-8"?>
<svg width="115px" height="84px" viewBox="0 0 115 84" version="1.1" xmlns="http://www.w3.org/2000/svg" xmlns:xlink="http://www.w3.org/1999/xlink">
    <title>docker-logo</title>
    <g id="Page-1" stroke="none" stroke-width="1" fill="none" fill-rule="evenodd">
        <g id="docker-logo" transform="translate(0.411765, 0.323529)" fill="#C9C8C8" fill-rule="nonzero">
            <path d="M111.630509,31.3886733 C109.063818,29.6077558 103.181817,28.9399117 98.5831608,29.8303703 C98.0484333,25.3780763 95.5886875,21.482319 91.3108685,18.0317911 L88.8511225,16.2508734 L87.1399948,18.8109425 C85.0010851,22.1501631 83.9316305,26.8250719 84.2524668,31.2773661 C84.3594125,32.835669 84.8941398,35.6183526 86.4983223,38.0671145 C85.0010851,38.9575734 81.8996665,40.0706469 77.8357385,40.0706469 L0.51415822,40.0706469 L0.300267258,40.9611057 C-0.448351091,45.4133994 -0.448351091,59.3268188 8.32117805,70.0123249 C14.9517976,78.1377614 24.7907816,82.2561332 37.7311844,82.2561332 C65.7508995,82.2561332 86.4983223,68.7879438 96.2303606,44.4116334 C100.080397,44.522941 108.315199,44.4116334 112.486073,36.0635823 C112.593019,35.8409675 112.806909,35.3957378 113.555528,33.7261276 L113.98331,32.835669 L111.630509,31.3886733 L111.630509,31.3886733 Z M62.3286441,0 L50.5646413,0 L50.5646413,11.1307352 L62.3286441,11.1307352 L62.3286441,0 L62.3286441,0 Z M62.3286441,13.3568823 L50.5646413,13.3568823 L50.5646413,24.4876175 L62.3286441,24.4876175 L62.3286441,13.3568823 L62.3286441,13.3568823 Z M48.4257321,13.3568823 L36.6617295,13.3568823 L36.6617295,24.4876175 L48.4257321,24.4876175 L48.4257321,13.3568823 L48.4257321,13.3568823 Z M34.5228202,13.3568823 L22.7588175,13.3568823 L22.7588175,24.4876175 L34.5228202,24.4876175 L34.5228202,13.3568823 L34.5228202,13.3568823 Z M20.6199079,26.7137645 L8.85590545,26.7137645 L8.85590545,37.8444997 L20.6199079,37.8444997 L20.6199079,26.7137645 L20.6199079,26.7137645 Z M34.5228202,26.7137645 L22.7588175,26.7137645 L22.7588175,37.8444997 L34.5228202,37.8444997 L34.5228202,26.7137645 L34.5228202,26.7137645 Z M48.4257321,26.7137645 L36.6617295,26.7137645 L36.6617295,37.8444997 L48.4257321,37.8444997 L48.4257321,26.7137645 L48.4257321,26.7137645 Z M62.3286441,26.7137645 L50.5646413,26.7137645 L50.5646413,37.8444997 L62.3286441,37.8444997 L62.3286441,26.7137645 L62.3286441,26.7137645 Z M76.2315562,26.7137645 L64.4675533,26.7137645 L64.4675533,37.8444997 L76.2315562,37.8444997 L76.2315562,26.7137645 L76.2315562,26.7137645 Z" id="Shape"></path>
        </g>
    </g>
</svg>