<?xml version="1.0" encoding="UTF-8"?>
<svg width="117px" height="84px" viewBox="0 0 117 84" version="1.1" xmlns="http://www.w3.org/2000/svg" xmlns:xlink="http://www.w3.org/1999/xlink">
    <title>docker-logo</title>
    <defs>
        <filter id="filter-1">
            <feColorMatrix in="SourceGraphic" type="matrix" values="0 0 0 0 0.603922 0 0 0 0 0.603922 0 0 0 0 0.603922 0 0 0 1.000000 0"></feColorMatrix>
        </filter>
    </defs>
    <g id="Page-1" stroke="none" stroke-width="1" fill="none" fill-rule="evenodd">
        <g id="docker-logo" transform="translate(-993.000000, -46.000000)" filter="url(#filter-1)">
            <g transform="translate(993.000000, 46.000000)">
                <path d="M113.863119,32.0164468 C111.245094,30.1999109 105.245453,29.5187099 100.554824,30.4269777 C100.009402,25.8856378 97.5004613,21.9119654 93.1370859,18.3924269 L90.628145,16.5758909 L88.8827947,19.1871614 C86.7011068,22.5931664 85.6102631,27.3615733 85.9375161,31.9029134 C86.0466008,33.4923824 86.5920226,36.3307197 88.2282887,38.8284568 C86.7011068,39.7367249 83.5376598,40.8720598 79.3924533,40.8720598 L0.524441384,40.8720598 L0.306272603,41.7803278 C-0.457318113,46.3216674 -0.457318113,60.5133552 8.48760161,71.4125714 C15.2508336,79.7005166 25.2865972,83.9012559 38.4858081,83.9012559 C67.0659175,83.9012559 88.2282887,70.1637027 98.1549678,45.2998661 C102.082005,45.4133998 110.481503,45.2998661 114.735794,36.7848539 C114.844879,36.5577868 115.063047,36.1036526 115.826639,34.4006502 L116.262976,33.4923824 L113.863119,32.0164468 L113.863119,32.0164468 Z M63.575217,0 L51.5759341,0 L51.5759341,11.3533499 L63.575217,11.3533499 L63.575217,0 L63.575217,0 Z M63.575217,13.6240199 L51.5759341,13.6240199 L51.5759341,24.9773698 L63.575217,24.9773698 L63.575217,13.6240199 L63.575217,13.6240199 Z M49.3942467,13.6240199 L37.3949641,13.6240199 L37.3949641,24.9773698 L49.3942467,24.9773698 L49.3942467,13.6240199 L49.3942467,13.6240199 Z M35.2132766,13.6240199 L23.2139939,13.6240199 L23.2139939,24.9773698 L35.2132766,24.9773698 L35.2132766,13.6240199 L35.2132766,13.6240199 Z M21.0323061,27.2480398 L9.03302356,27.2480398 L9.03302356,38.6013897 L21.0323061,38.6013897 L21.0323061,27.2480398 L21.0323061,27.2480398 Z M35.2132766,27.2480398 L23.2139939,27.2480398 L23.2139939,38.6013897 L35.2132766,38.6013897 L35.2132766,27.2480398 L35.2132766,27.2480398 Z M49.3942467,27.2480398 L37.3949641,27.2480398 L37.3949641,38.6013897 L49.3942467,38.6013897 L49.3942467,27.2480398 L49.3942467,27.2480398 Z M63.575217,27.2480398 L51.5759341,27.2480398 L51.5759341,38.6013897 L63.575217,38.6013897 L63.575217,27.2480398 L63.575217,27.2480398 Z M77.7561873,27.2480398 L65.7569044,27.2480398 L65.7569044,38.6013897 L77.7561873,38.6013897 L77.7561873,27.2480398 L77.7561873,27.2480398 Z" id="Shape" fill="#2396ED" fill-rule="nonzero"></path>
            </g>
        </g>
    </g>
</svg>