<?xml version="1.0" encoding="UTF-8"?>
<svg width="101px" height="101px" viewBox="0 0 101 101" version="1.1" xmlns="http://www.w3.org/2000/svg" xmlns:xlink="http://www.w3.org/1999/xlink">
    <title>nest-logo</title>
    <g id="Page-1" stroke="none" stroke-width="1" fill="none" fill-rule="evenodd">
        <g id="nest-logo" transform="translate(0.745098, 0.500000)" fill="#C9C8C8" fill-rule="nonzero">
            <path d="M58.6606792,0.81761731 C57.9439066,0.81761731 57.2643688,0.975865822 56.659301,1.18996675 C57.962524,2.06498793 58.6886055,3.2192712 59.0516462,4.54111171 C59.0795724,4.72728642 59.1261161,4.84829999 59.1447335,5.02516597 C59.163351,5.20203195 59.200586,5.33235425 59.200586,5.49060277 C59.2936733,7.75262562 58.6141356,8.0318877 58.1207725,9.37234568 C57.410771,11.0157013 57.5462487,12.9019672 58.4838132,14.4269893 C58.5659802,14.6265314 58.6689448,14.8168598 58.7910016,14.9948222 C57.8135843,8.49732449 63.2312686,7.51990722 64.2366121,5.49991151 C64.311082,3.63816431 62.8403017,2.54904221 61.6953272,1.7205647 C60.7868775,1.14778794 59.7346219,0.844376827 58.6606792,0.845543518 L58.6606792,0.81761731 Z M66.8244407,2.27908886 C66.7313533,2.86553923 66.7965145,2.71659945 66.7685883,3.02378774 L66.7127359,3.69401673 L66.5265612,4.3083933 C66.4698498,4.51685705 66.4014781,4.72197207 66.3217689,4.92276987 L66.0425069,5.50922025 C65.968037,5.6023076 65.9121846,5.71401243 65.8377147,5.81640853 L65.6794662,6.04912693 L65.3071168,6.56110741 C65.1488682,6.71935592 65.0278547,6.8962219 64.8416799,7.02654421 C64.6555052,7.15686651 64.5344917,7.33373249 64.3576257,7.46405479 C63.817719,7.87363918 63.2033425,8.18082747 62.6355095,8.58110312 C62.4493348,8.71142542 62.2631601,8.81382152 62.123529,8.95345256 C61.983898,9.0930836 61.7884145,9.21409717 61.6394748,9.36303694 C61.490535,9.51197672 61.3322865,9.67022523 61.1740379,9.84709118 C61.0157894,10.0239572 60.8947759,10.1822057 60.8016885,10.3590717 L60.4293391,10.8989783 L60.150077,11.4854287 L59.9452848,12.0718791 L59.7591101,12.7234906 C59.7311839,12.8165779 59.7311839,12.956209 59.7032576,13.0586051 C59.6753315,13.1610012 59.6753315,13.2633974 59.6474053,13.3657934 L59.619479,14.0174049 C59.6157969,14.1730577 59.6251381,14.3287459 59.6474053,14.4828418 C59.6474053,14.6876339 59.6753315,14.8924261 59.7218752,15.1344532 C59.7684188,15.3764804 59.796345,15.5440376 59.8521975,15.7488298 L60.0569896,16.3632064 C60.1128421,16.4935287 60.187312,16.623851 60.2431644,16.7355558 L54.3414258,14.4456068 L51.3626303,13.6729817 L49.7429102,13.3006323 C48.197591,12.9939233 46.6380143,12.7640256 45.0699247,12.6117858 C43.4995831,12.438672 41.9209416,12.3516602 40.3410869,12.3511412 L36.9899419,12.4814635 C35.4147169,12.5946737 33.8459054,12.7841737 32.2890302,13.0492964 L31.134747,13.2540885 L28.8261805,13.766069 L27.6718972,14.0732574 L26.5548488,14.5573116 L25.7170626,14.9296611 L24.8792764,15.3392454 C24.8048065,15.3671717 24.7489541,15.3950978 24.6931017,15.4137153 L23.8925504,15.8232997 C23.7063757,15.8977696 23.520201,16.0094744 23.3805699,16.0839443 C23.3061,16.1397968 23.1943952,16.1770317 23.1478515,16.2142666 L22.4776225,16.5866161 C22.2449041,16.7169383 22.040112,16.8472607 21.863246,16.9589655 L21.3512655,17.3313149 L20.7927413,17.7408993 L20.3552307,18.1132487 C20.0759686,18.318041 19.9456463,18.4483632 19.815324,18.5507593 L19.2567999,19.0906661 L18.7448194,19.5747203 L18.3073088,20.0401571 C18.2514564,20.0960095 18.1769865,20.1332445 18.1211341,20.1984056 C17.9908118,20.3566541 17.841872,20.5055939 17.6836234,20.6638425 L16.9947771,21.4085413 L15.5984667,22.7396905 C15.1445245,23.1446106 14.6657448,23.5207947 14.1649213,23.8660475 L12.6196711,24.8434649 C12.0949983,25.1317974 11.5542015,25.3897636 10.9999511,25.61609 C10.4600443,25.8488083 9.88290275,26.0536006 9.32437857,26.2304666 C8.2445652,26.4631849 7.14613435,26.9006955 6.18733455,26.9751654 C5.98254235,26.9751654 5.74982395,27.0310178 5.53572303,27.0496353 L4.88411151,27.2078838 L4.26973493,27.4406023 C4.06494275,27.5150721 3.86015055,27.626777 3.65535836,27.7198643 C3.45056617,27.8129517 3.28300892,27.9525826 3.09683421,28.0922137 C2.91470855,28.2240735 2.74349522,28.370383 2.58485373,28.5297243 C2.398679,28.6600467 2.21250428,28.8369126 2.07287325,28.9951611 L1.63536266,29.5071416 C1.50504035,29.7119338 1.35610057,29.8794911 1.26301322,30.093592 C1.16992585,30.3076928 1.00236861,30.4659414 0.890663775,30.6800424 L0.611401695,31.3502713 L0.378683296,32.0205003 L0.248360992,32.6348769 C0.173891104,32.9420652 0.173891104,33.2492534 0.155273632,33.407502 C0.136656161,33.5657505 0.0994212167,33.7426165 0.0994212167,33.9194825 C0.0994212167,34.0125698 0.0994212167,34.1522009 0.127347425,34.254597 C0.155273632,34.4407717 0.18319984,34.5897115 0.220434784,34.7386512 L0.406609504,35.204088 C0.481079391,35.3902627 0.592784224,35.5392025 0.685871583,35.6881423 L1.02098608,36.1535791 L1.45849667,36.5631634 C1.61674518,36.721412 1.76568496,36.8424256 1.94255094,36.9727478 C2.55692751,37.5126545 2.71517603,37.6895205 3.50641859,38.0897962 C3.63674089,38.1642661 3.7670632,38.2201184 3.91600297,38.2945883 C4.04632527,38.6669378 4.10217769,38.8531125 4.14872136,39.0672134 C4.19526505,39.2813144 4.27904367,39.504724 4.35351356,39.68159 L4.55830575,40.1470269 L4.93065519,40.8358732 L5.30300463,41.37578 L5.74051522,41.8598342 C5.89876374,42.0180827 6.04770351,42.1390963 6.22456949,42.2973448 L6.73654997,42.6696943 C6.91651436,42.7964773 7.10640711,42.9085451 7.30438286,43.0048087 C7.49055758,43.0978961 7.6767323,43.209601 7.89083323,43.2840709 C8.04908175,43.3585407 8.22594773,43.4143931 8.40281371,43.4702456 C8.5796797,43.5260979 8.73792821,43.5633329 8.8403243,43.6005678 C8.76585441,44.9968782 8.74723694,46.3931886 8.93341166,46.7655381 C9.16613006,47.2775185 10.2924872,45.7136509 11.4281529,43.9170649 C11.2699044,45.7788121 11.1675083,47.7708816 11.4281529,48.3852581 C11.6887975,48.9996347 13.2526652,47.0261827 14.5931231,44.8107035 C32.8010107,40.6031549 49.4077957,53.1885659 51.1764555,70.9496341 C50.8413411,68.1756309 47.4250349,66.6396894 45.870476,67.0213475 C45.097851,68.9203297 43.7946279,71.3592185 41.6815448,72.8858513 C41.8642745,71.1699627 41.7763209,69.43602 41.4209002,67.747429 C40.8623761,70.1118479 39.7453277,72.3087096 38.2373125,74.2170005 C35.8488244,74.3794675 33.5369055,73.3387547 32.0749293,71.4429972 C31.981842,71.3685273 31.944607,71.2102787 31.8701372,71.1078826 L31.6001837,70.4748886 C31.5257139,70.2887139 31.4698615,70.1025392 31.4419353,69.934982 C31.414009,69.7674247 31.414009,69.5626325 31.414009,69.3764577 L31.414009,69.0041083 C31.4419353,68.8179336 31.4884789,68.6317589 31.5443314,68.4642017 L31.7305061,67.924295 C31.8235934,67.7381203 31.9166808,67.5519455 32.0376943,67.3843883 C32.4752049,66.1556351 32.4752049,65.1502917 31.6653449,64.5638413 C31.5070964,64.4707539 31.3581567,64.3776666 31.1812907,64.3031967 C31.0882033,64.2752705 30.9485723,64.2287268 30.8461762,64.2101093 L30.6413839,64.1356394 L30.1014773,64.0053172 C29.9258687,63.9554044 29.7441339,63.9303375 29.5615706,63.9308473 C29.3737824,63.8993457 29.1840647,63.8806849 28.9937376,63.8749948 C28.8634154,63.8749948 28.733093,63.9029211 28.6213882,63.9029211 C28.4165961,63.9029211 28.2490388,63.9308473 28.0628641,63.9773909 L27.5229575,64.0704782 L26.9830507,64.256653 L26.4710702,64.4893714 L25.987016,64.750016 C20.0014987,68.6596851 23.5667446,77.7822464 27.6625884,80.4445449 C26.1173382,80.723807 24.5534706,81.0589215 24.1252688,81.394036 C25.177156,82.1108086 26.3314392,82.6786415 27.5415749,83.2557831 L31.7025799,84.4845363 C33.8269543,84.9400553 36.0036447,85.1029156 38.1721514,84.9685906 C49.5474268,84.1680392 58.8747802,75.5202235 60.5689701,64.117022 L60.7272186,64.787251 L60.9599371,66.2207963 C61.0157894,66.4814409 61.034407,66.7048506 61.0530244,66.9096427 L61.1088768,67.6822678 L61.1647292,68.5200541 L61.1647292,68.9296384 C61.1647292,69.0599608 61.1926554,69.2089005 61.1926554,69.3392228 C61.1926554,69.4695451 61.1647292,69.6464112 61.1647292,69.8046596 L61.1647292,70.1770091 C61.1647292,70.3631838 61.136803,70.5121235 61.136803,70.6889895 C61.136803,70.782077 61.136803,70.8937818 61.1088768,71.024104 L61.0809506,71.5826282 C61.0530244,71.6570981 61.0530244,71.7408768 61.0530244,71.8153466 L60.9785545,72.401797 C60.9785545,72.4762669 60.9785545,72.5600455 60.9506283,72.6345154 L60.857541,73.3792142 L60.857541,73.4257579 L60.6992925,74.1425306 L60.5410439,74.9151557 L60.1314595,76.4976408 L59.8708149,77.3168096 L59.3122908,78.8062074 L59.0051025,79.5509062 L58.632753,80.2676789 C58.6048269,80.3421487 58.5769006,80.3980012 58.5582831,80.4538536 C56.8466144,83.8821993 54.3569561,86.8627762 51.2881604,89.1575218 C51.0833681,89.287844 50.878576,89.4367838 50.6737838,89.5950324 C50.6179314,89.6508847 50.5434615,89.6695023 50.487609,89.7253546 L49.9290849,90.0977041 L50.0035548,90.2559525 L50.031481,90.2559525 L51.1112944,90.0977041 L51.1392206,90.0977041 L53.1405988,89.7253546 C53.3267735,89.6974284 53.5129482,89.6508847 53.6991229,89.5950324 L54.0714725,89.5205625 L54.6113791,89.4274751 L55.0768159,89.2971527 C57.6214612,88.6765435 60.1118738,87.8515943 62.5238047,86.8303377 C58.3980273,92.4524934 52.9109625,96.9337564 46.57794,99.8532598 C49.5430042,99.6568471 52.4790845,99.1482598 55.3374605,98.3359353 C65.6887749,95.28267 74.392443,88.3197355 79.6053352,78.9458383 C78.553448,84.8755032 76.1890291,90.5259059 72.6982531,95.459536 C75.1929943,93.8118897 77.4736347,91.9222163 79.5587916,89.7625896 C85.3115904,83.7491462 89.0909372,76.1252914 90.3569253,67.9336037 C91.2319465,71.9922125 91.4739735,76.1811438 91.1016241,80.3142225 C109.644626,54.454554 92.6468743,27.6453944 85.5163825,20.5800638 C85.4232952,20.7662385 85.3860602,21.064118 85.3674427,21.3806151 L85.1067981,23.1027313 L84.6692875,24.7969212 L84.054911,26.4445675 L83.2822859,28.0084351 L82.3514124,29.4699067 L81.2995252,30.8662171 C80.9271757,31.3316538 80.4989738,31.7412382 80.0893895,32.1508226 L79.3446906,32.8024341 L78.7582402,33.3144146 C78.3013227,33.6784256 77.8225816,34.0141661 77.3246949,34.3197581 L75.8073709,35.1947793 L74.1876509,35.911552 C73.6412893,36.1183662 73.0852142,36.2985469 72.5213872,36.4514586 L70.799271,36.823808 C70.2128206,36.9168954 69.6170615,36.9820566 69.0492286,37.0286003 L67.8204755,37.0844526 C67.2340251,37.0844526 66.638266,37.0286003 66.0704331,36.9913653 C65.4820058,36.9478767 64.8972739,36.8638992 64.3203907,36.7400294 C63.7339404,36.6469421 63.1661075,36.4793848 62.5982746,36.3025188 L62.5703483,36.3025188 L64.2645383,36.0977267 L65.9866545,35.7253773 L67.662227,35.1854706 C68.2207511,34.9806783 68.7792753,34.7200337 69.281947,34.4686978 C69.8105767,34.2117794 70.3262803,33.9290744 70.8271972,33.6216029 L72.2607425,32.6907293 C72.7217751,32.3335693 73.160133,31.9480631 73.5732743,31.5364461 C74.0024532,31.1431871 74.4066205,30.7234749 74.78341,30.2797667 L75.8632233,28.8834563 C75.9190758,28.8089864 75.9563107,28.6972816 76.0214719,28.6228117 L76.7661707,27.3940585 L77.5387958,25.8301909 L78.1531724,24.1825446 C78.3393472,23.6426379 78.4603607,23.0654963 78.5906829,22.5069722 L78.8513275,20.784856 L78.9444149,19.0348136 L78.8978713,17.8060605 L78.6930791,16.0839443 L78.3207296,14.3618281 L77.7622055,12.7141819 C77.5574133,12.1742752 77.2967687,11.6343685 77.0454328,11.1316968 L76.1704117,9.61437281 L75.239538,8.19944494 L74.0573285,6.8962219 L73.3870996,6.24461038 L69.8218537,3.73125167 C69.6356789,3.63816431 69.4867392,3.54507695 69.3098732,3.47060706 C68.472087,2.93070037 67.662227,2.65143829 66.8709844,2.39079369 L66.8244407,2.27908886 Z" id="Shape"></path>
        </g>
    </g>
</svg>