<?xml version="1.0" encoding="UTF-8"?>
<svg width="102px" height="102px" viewBox="0 0 102 102" version="1.1" xmlns="http://www.w3.org/2000/svg" xmlns:xlink="http://www.w3.org/1999/xlink">
    <title>nest-logo</title>
    <defs>
        <filter id="filter-1">
            <feColorMatrix in="SourceGraphic" type="matrix" values="0 0 0 0 0.603922 0 0 0 0 0.603922 0 0 0 0 0.603922 0 0 0 1.000000 0"></feColorMatrix>
        </filter>
    </defs>
    <g id="Page-1" stroke="none" stroke-width="1" fill="none" fill-rule="evenodd">
        <g id="nest-logo" transform="translate(-79.000000, -213.000000)" filter="url(#filter-1)">
            <g transform="translate(79.000000, 213.000000)">
                <path d="M59.8338928,0.833969656 C59.1027847,0.833969656 58.4096562,0.995383138 57.792487,1.21376608 C59.1217745,2.10628769 59.8623776,3.28365662 60.2326791,4.63193394 C60.2611638,4.82183215 60.3086384,4.94526599 60.3276282,5.12566929 C60.346618,5.30607259 60.3845977,5.43900134 60.3845977,5.60041483 C60.4795468,7.90767813 59.7864183,8.19252545 59.283188,9.55979259 C58.5589864,11.2360153 58.6971737,13.1600065 59.6534895,14.7155291 C59.7372998,14.919062 59.8423237,15.113197 59.9668216,15.2947186 C58.969856,8.66727098 64.495894,7.67030536 65.5213443,5.60990974 C65.5973036,3.7109276 64.0971077,2.60002305 62.9292337,1.75497599 C62.002615,1.1707437 60.9293143,0.861264364 59.8338928,0.862454388 L59.8338928,0.833969656 Z M68.1609295,2.32467064 C68.0659804,2.92285001 68.1324448,2.77093144 68.1039601,3.08426349 L68.0469906,3.76789706 L67.8570924,4.39456117 C67.7992468,4.60719419 67.7295077,4.81641151 67.6482043,5.02122527 L67.363357,5.61940465 C67.2873977,5.71435375 67.2304283,5.82829268 67.154469,5.9327367 L66.9930555,6.17010947 L66.6132591,6.69232956 C66.4518456,6.85374304 66.3284118,7.03414634 66.1385135,7.16707509 C65.9486153,7.30000384 65.8251815,7.48040714 65.6447782,7.61333589 C65.0940734,8.03111196 64.4674093,8.34444402 63.8882197,8.75272518 C63.6983215,8.88565393 63.5084233,8.99009795 63.3659996,9.13252161 C63.223576,9.27494527 63.0241828,9.39837911 62.8722643,9.55029768 C62.7203457,9.70221625 62.5589322,9.86362973 62.3975187,10.044033 C62.2361052,10.2244363 62.1126714,10.3858498 62.0177223,10.5662531 L61.6379259,11.1169579 L61.3530785,11.7151373 L61.1441905,12.3133167 L60.9542923,12.9779604 C60.9258076,13.0729095 60.9258076,13.2153332 60.8973228,13.3197772 C60.8688381,13.4242212 60.8688381,13.5286653 60.8403534,13.6331093 L60.8118686,14.297753 C60.8081128,14.4565189 60.8176409,14.6153208 60.8403534,14.7724986 C60.8403534,14.9813866 60.8688381,15.1902746 60.9163127,15.4371423 C60.9637872,15.68401 60.9922719,15.8549184 61.0492414,16.0638064 L61.2581294,16.6904705 C61.3150989,16.8233993 61.3910582,16.956328 61.4480277,17.0702669 L55.4282543,14.7345189 L52.3898829,13.9464413 L50.7377684,13.5666449 C49.1615428,13.2538018 47.5707746,13.0193061 45.9713232,12.8640215 C44.3695748,12.6874454 42.7593604,12.5986934 41.1479086,12.598164 L37.7297407,12.7310928 C36.1230112,12.8465672 34.5228235,13.0398572 32.9348108,13.3102823 L31.7574419,13.5191703 L29.4027041,14.0413904 L28.2253351,14.3547225 L27.0859458,14.8484578 L26.2314039,15.2282543 L25.3768619,15.6460303 C25.3009026,15.6745151 25.2439332,15.7029998 25.1869637,15.7219896 L24.3704014,16.1397657 C24.1805032,16.215725 23.990605,16.3296639 23.8481813,16.4056232 C23.772222,16.4625927 23.6582831,16.5005723 23.6108085,16.5385519 L22.927175,16.9183484 C22.6898022,17.0512771 22.4809142,17.1842059 22.3005109,17.2981448 L21.7782908,17.6779412 L21.2085961,18.0957173 L20.7623353,18.4755137 C20.477488,18.6844018 20.3445592,18.8173305 20.2116305,18.9217745 L19.6419359,19.4724794 L19.1197158,19.9662147 L18.673455,20.4409602 C18.6164855,20.4979297 18.5405262,20.5359094 18.4835568,20.6023737 C18.350628,20.7637872 18.1987094,20.9157058 18.0372959,21.0771193 L17.3346726,21.8367121 L15.910436,23.1944843 C15.447415,23.6075028 14.9590597,23.9912106 14.4482197,24.3433685 L12.8720645,25.3403342 C12.3368983,25.6344333 11.7852855,25.8975589 11.2199501,26.1284118 C10.6692452,26.3657845 10.0805608,26.5746726 9.51086614,26.7550759 C8.4094565,26.9924486 7.28905704,27.4387094 6.31108124,27.5146687 C6.1021932,27.5146687 5.86482043,27.5716382 5.64643749,27.590628 L4.98179374,27.7520415 L4.35512963,27.9894143 C4.1462416,28.0653735 3.93735356,28.1793125 3.72846553,28.2742616 C3.51957749,28.3692107 3.3486691,28.5116343 3.15877089,28.654058 C2.97300272,28.788555 2.79836512,28.9377907 2.6365508,29.1003188 C2.44665258,29.2332476 2.25675437,29.4136509 2.11433071,29.5750643 L1.66806991,30.0972844 C1.53514116,30.3061725 1.38322258,30.4770809 1.28827348,30.6954638 C1.19332437,30.9138467 1.02241598,31.0752602 0.90847705,31.2936432 L0.623629729,31.9772767 L0.386256962,32.6609103 L0.253328212,33.2875744 C0.177368926,33.6009065 0.177368926,33.9142385 0.158379105,34.075652 C0.139389284,34.2370655 0.101409641,34.4174688 0.101409641,34.5978721 C0.101409641,34.6928212 0.101409641,34.8352449 0.129894373,34.9396889 C0.158379105,35.1295871 0.186863837,35.2815057 0.22484348,35.4334242 L0.414741694,35.9081698 C0.490700979,36.098068 0.604639908,36.2499866 0.699589015,36.4019051 L1.0414058,36.8766507 L1.4876666,37.2944267 C1.64908008,37.4558402 1.80099866,37.5792741 1.98140196,37.7122028 C2.60806606,38.2629076 2.76947955,38.4433109 3.57654696,38.8515921 C3.70947571,38.9275514 3.84240446,38.9845208 3.99432303,39.0604801 C4.12725178,39.4402766 4.18422124,39.6301748 4.23169579,39.8485577 C4.27917035,40.0669407 4.36462454,40.2948185 4.44058383,40.4752218 L4.64947186,40.9499674 L5.02926829,41.6525907 L5.40906472,42.2032956 L5.85532552,42.6970309 C6.01673901,42.8584444 6.16865758,42.9818782 6.34906088,43.1432917 L6.87128097,43.5230882 C7.05484465,43.6524068 7.24853525,43.766716 7.45047052,43.8649049 C7.64036873,43.959854 7.83026695,44.073793 8.04864989,44.1497523 C8.21006338,44.2257115 8.39046668,44.282681 8.57086998,44.3396505 C8.75127329,44.3966199 8.91268677,44.4345996 9.01713079,44.4725792 C8.9411715,45.8968158 8.92218168,47.3210524 9.11207989,47.7008489 C9.34945266,48.2230689 10.4983369,46.6279239 11.656716,44.7954062 C11.4953025,46.6943883 11.3908585,48.7262992 11.656716,49.3529633 C11.9225735,49.9796274 13.5177185,47.9667064 14.8849856,45.7069176 C33.4570309,41.415218 50.3959516,54.2523372 52.1999846,72.3686268 C51.8581679,69.5391435 48.3735356,67.9724832 46.7878855,68.3617745 C45.999808,70.2987363 44.6705205,72.7864029 42.5151757,74.3435683 C42.70156,72.593362 42.6118473,70.8247404 42.2493182,69.1023776 C41.6796236,71.5140849 40.5402343,73.7548838 39.0020588,75.7013405 C36.5658009,75.8670568 34.2076436,74.8055298 32.7164279,72.8718571 C32.6214788,72.7958978 32.5834991,72.6344843 32.5075399,72.5300403 L32.2321874,71.8843864 C32.1562282,71.6944882 32.0992587,71.50459 32.070774,71.3336816 C32.0422892,71.1627732 32.0422892,70.9538852 32.0422892,70.7639869 L32.0422892,70.3841905 C32.070774,70.1942923 32.1182485,70.0043941 32.175218,69.8334857 L32.3651162,69.2827809 C32.4600653,69.0928827 32.5550144,68.9029844 32.6784482,68.7320761 C33.124709,67.4787478 33.124709,66.4532975 32.2986518,65.8551181 C32.1372383,65.760169 31.9853198,65.6652199 31.8049165,65.5892606 C31.7099674,65.5607759 31.5675437,65.5133013 31.4630997,65.4943115 L31.2542116,65.4183522 L30.7035068,65.2854235 C30.5243861,65.2345125 30.3390166,65.2089443 30.152802,65.2094642 C29.961258,65.1773326 29.767746,65.1582986 29.5736124,65.1524947 C29.4406837,65.1524947 29.3077549,65.1809795 29.193816,65.1809795 C28.984928,65.1809795 28.8140196,65.2094642 28.6241214,65.2569387 L28.0734166,65.3518878 L27.5227117,65.5417861 L27.0004916,65.7791588 L26.5067563,66.0450163 C20.4015287,70.0328788 24.0380795,79.3378913 28.2158402,82.0534358 C26.639685,82.3382831 25.04454,82.6800999 24.6077742,83.0219167 C25.6806991,83.7530248 26.858068,84.3322143 28.0924064,84.9208988 L32.3366315,86.174227 C34.5034934,86.6388564 36.7237176,86.8049739 38.9355944,86.6679624 C50.5383753,85.8514 60.0522758,77.030628 61.7803495,65.3993624 L61.941763,66.082996 L62.1791358,67.5452122 C62.2361052,67.8110697 62.2550951,68.0389476 62.2740849,68.2478356 L62.3310543,69.0359132 L62.3880238,69.8904552 L62.3880238,70.3082312 C62.3880238,70.44116 62.4165085,70.5930785 62.4165085,70.7260073 C62.4165085,70.858936 62.3880238,71.0393394 62.3880238,71.2007528 L62.3880238,71.5805493 C62.3880238,71.7704475 62.3595391,71.922366 62.3595391,72.1027693 C62.3595391,72.1977185 62.3595391,72.3116574 62.3310543,72.4445861 L62.3025696,73.0142808 C62.2740849,73.0902401 62.2740849,73.1756943 62.2740849,73.2516535 L62.1981256,73.8498329 C62.1981256,73.9257922 62.1981256,74.0112464 62.1696409,74.0872057 L62.0746918,74.8467985 L62.0746918,74.8942731 L61.9132783,75.6253812 L61.7518648,76.4134588 L61.3340887,78.0275936 L61.0682312,78.8631458 L60.4985366,80.3823315 L60.1852045,81.1419243 L59.8054081,81.8730325 C59.7769234,81.9489917 59.7484386,82.0059612 59.7294488,82.0629307 C57.9835467,85.5598433 55.4440952,88.6000317 52.3139236,90.9406722 C52.1050355,91.0736009 51.8961475,91.2255195 51.6872595,91.386933 C51.63029,91.4439024 51.5543307,91.4628923 51.4973612,91.5198617 L50.9276666,91.8996582 L51.0036259,92.0610716 L51.0321106,92.0610716 L52.1335203,91.8996582 L52.162005,91.8996582 L54.2034108,91.5198617 C54.393309,91.491377 54.5832072,91.4439024 54.7731054,91.386933 L55.1529019,91.3109737 L55.7036067,91.2160246 L56.1783522,91.0830958 C58.7738904,90.4500744 61.3141113,89.6086262 63.7742808,88.5669445 C59.5659878,94.3015433 53.9691818,98.8724315 47.5094988,101.850325 C50.5338643,101.649984 53.5286662,101.131225 56.4442097,100.302654 C67.0025504,97.1883234 75.8802919,90.0861302 81.1974419,80.5247551 C80.124517,86.5730133 77.7128097,92.336424 74.1522182,97.3687267 C76.6968542,95.6881275 79.0231074,93.7606606 81.1499674,91.5578414 C87.0178222,85.4241291 90.8727559,77.6477972 92.1640638,69.2922758 C93.0565854,73.4320568 93.303453,77.7047667 92.9236566,81.920507 C111.837519,55.5436451 94.4998118,28.1983023 87.2267102,20.9916651 C87.1317611,21.1815633 87.0937814,21.4854004 87.0747916,21.8082274 L86.8089341,23.5647859 L86.3626733,25.2928596 L85.7360092,26.9734588 L84.9479316,28.5686038 L83.9984406,30.0593048 L82.9255157,31.4835414 C82.5457192,31.9582869 82.1089533,32.376063 81.6911773,32.7938391 L80.9315844,33.4584828 L80.333405,33.9807029 C79.8673492,34.3519941 79.3790332,34.6944494 78.8711888,35.0061533 L77.3235183,35.8986749 L75.6714039,36.629783 C75.1141151,36.8407335 74.5469185,37.0245178 73.9718149,37.1804878 L72.2152564,37.5602842 C71.617077,37.6552333 71.0094027,37.7216977 70.4302132,37.7691723 L69.176885,37.8261417 C68.5787056,37.8261417 67.9710313,37.7691723 67.3918418,37.7311926 C66.7916459,37.6868342 66.1952194,37.6011772 65.6067985,37.47483 C65.0086192,37.3798809 64.4294296,37.2089725 63.8502401,37.0285692 L63.8217553,37.0285692 L65.5498291,36.8196812 L67.3063876,36.4398848 L69.0154715,35.88918 C69.5851661,35.6802919 70.1548608,35.4144344 70.6675859,35.1580718 C71.2067882,34.896015 71.7328059,34.6076559 72.2437411,34.294035 L73.7059574,33.3445439 C74.1762106,32.9802407 74.6233357,32.5870244 75.0447398,32.167175 C75.4825023,31.7660508 75.8947529,31.3379444 76.2790782,30.885362 L77.3804878,29.4611254 C77.4374573,29.3851661 77.4754369,29.2712272 77.5419013,29.1952679 L78.3014941,27.9419397 L79.0895717,26.3467947 L79.7162358,24.6661955 C79.9061341,24.1154907 80.0295679,23.5268062 80.1624966,22.9571116 L80.4283541,21.2005531 L80.5233032,19.4155099 L80.4758287,18.1621817 L80.2669407,16.4056232 L79.8871442,14.6490647 L79.3174496,12.9684655 C79.1085616,12.4177607 78.8427041,11.8670559 78.5863415,11.3543307 L77.6938199,9.80666027 L76.7443288,8.36343384 L75.5384751,7.03414634 L74.8548416,6.36950259 L71.2182908,3.8058767 C71.0283925,3.7109276 70.876474,3.61597849 70.6960707,3.5400192 C69.8415287,2.98931438 69.0154715,2.70446706 68.2084041,2.43860956 L68.1609295,2.32467064 Z" id="Shape" fill="#EA2845" fill-rule="nonzero"></path>
            </g>
        </g>
    </g>
</svg>