<?xml version="1.0" encoding="UTF-8"?>
<svg width="292px" height="84px" viewBox="0 0 292 84" version="1.1" xmlns="http://www.w3.org/2000/svg" xmlns:xlink="http://www.w3.org/1999/xlink">
    <title>node-logo</title>
    <g id="Page-1" stroke="none" stroke-width="1" fill="none" fill-rule="evenodd">
        <g id="node-logo" transform="translate(146.000000, 42.105506) scale(1, -1) translate(-146.000000, -42.105506) translate(0.000000, 0.605506)" fill="#C9C8C8" fill-rule="nonzero">
            <path d="M45.9388178,38.6332834 C45.9388178,39.5238534 45.4708494,40.3425927 44.7015862,40.7842615 L24.2064761,52.5793012 C23.8596502,52.7827943 23.4712381,52.8888146 23.077566,52.9047587 C23.0430478,52.9047587 22.8946194,52.9047587 22.8656899,52.9047587 C22.4746478,52.8888146 22.0855781,52.7827943 21.7344785,52.5793012 L1.23921391,40.7842615 C0.475138348,40.3425927 0,39.5238534 0,38.6332834 L0.0449456794,6.87282389 C0.0449456794,6.43107287 0.274168348,6.0201417 0.662626518,5.80376178 C1.04338055,5.57582648 1.51338226,5.57582648 1.89284761,5.80376178 L14.0724696,12.7780364 C14.8429655,13.2358301 15.3123147,14.0429318 15.3123147,14.9257928 L15.3123147,29.7642381 C15.3123147,30.6490551 15.7810392,31.46763 16.5483628,31.9074907 L21.7344785,34.8944672 C22.1209182,35.1178494 22.5433555,35.2269927 22.9748332,35.2269927 C23.3974348,35.2269927 23.8307206,35.1178494 24.2064761,34.8944672 L29.3912769,31.9074907 C30.1585676,31.46763 30.629166,30.6490551 30.629166,29.7642381 L30.629166,14.9257928 C30.629166,14.0429318 31.1042024,13.2307017 31.869685,12.7780364 L44.0467263,5.80376178 C44.4287279,5.57582648 44.9050794,5.57582648 45.2839579,5.80376178 C45.6615215,6.0201417 45.8990397,6.43107287 45.8990397,6.87282389 L45.9388178,38.6332834" id="path22"></path>
            <path d="M153.476383,22.0959336 C153.476383,21.875017 153.358199,21.6702089 153.166212,21.5604081 L146.127126,17.5023806 C145.935796,17.3925798 145.700086,17.3925798 145.508756,17.5023806 L138.469012,21.5604081 C138.277683,21.6702089 138.159499,21.875017 138.159499,22.0959336 L138.159499,30.2246453 C138.159499,30.4449045 138.277683,30.6497126 138.468355,30.7608283 L145.508099,34.826417 C145.700086,34.9375328 145.935796,34.9375328 146.127783,34.826417 L153.167527,30.7608283 C153.358199,30.6497126 153.476383,30.4449045 153.476383,30.2246453 L153.476383,22.0959336 L153.476383,22.0959336 Z M155.378172,82.2927482 C154.994856,82.5065968 154.526887,82.5015012 154.148009,82.2792696 C153.769788,82.0572024 153.537365,81.6507093 153.537365,81.2121636 L153.537365,49.7586696 C153.537365,49.4498138 153.371678,49.1634769 153.104572,49.0086381 C152.83681,48.8533061 152.506257,48.8533061 152.237836,49.0086381 L147.10432,51.9660275 C146.339002,52.4072032 145.39649,52.4065457 144.631007,51.9655344 L124.127514,40.1325247 C123.360881,39.6901984 122.889625,38.8734316 122.889625,37.9886146 L122.889625,14.3183872 C122.889625,13.4342441 123.360881,12.6168691 124.126857,12.173836 L144.629199,0.33259783 C145.395832,-0.109795714 146.339659,-0.109795714 147.106292,0.33259783 L167.612251,12.173836 C168.378227,12.6168691 168.849976,13.4342441 168.849976,14.3183872 L168.849976,73.322285 C168.849976,74.2199231 168.363433,75.046881 167.579377,75.4847692 L155.378172,82.2927482" id="path24"></path>
            <path d="M228.73251,30.4371789 C229.495198,30.8801628 229.96366,31.6956146 229.96366,32.5778016 L229.96366,38.3135789 C229.96366,39.195766 229.495198,40.0118753 228.730866,40.4548591 L208.360186,52.2832664 C207.592567,52.7282227 206.647425,52.7288802 205.878162,52.2865538 L185.382559,40.4535441 C184.616583,40.0112178 184.144834,39.194451 184.144834,38.309634 L184.144834,14.64585 C184.144834,13.7559211 184.623158,12.9346998 185.395709,12.4948719 L205.764745,0.888638664 C206.515927,0.459730073 207.436413,0.455234486 208.192526,0.87515519 L220.512243,7.72294186 C220.903449,7.93996283 221.146721,8.35025296 221.148364,8.79649134 C221.151652,9.24274615 220.913312,9.65624154 220.527036,9.87840737 L199.901579,21.7170551 C199.515304,21.9373142 199.278607,22.3475879 199.278607,22.7905717 L199.278607,30.2067287 C199.278607,30.6490551 199.515304,31.0580138 199.898291,31.2789304 L206.31868,34.9799409 C206.700024,35.2006931 207.171773,35.2006931 207.554761,34.9799409 L213.976794,31.2789304 C214.359781,31.0580138 214.596478,30.6490551 214.596478,30.2067287 L214.596478,24.3719992 C214.596478,23.9290154 214.833174,23.5193992 215.216162,23.2984826 C215.600794,23.0770729 216.072543,23.078881 216.45553,23.3011126 L228.73251,30.4371789" id="path26"></path>
            <path d="M83.2219457,52.4104907 C83.987264,52.852817 84.9310907,52.852817 85.6964089,52.4104907 L106.197436,40.5801109 C106.96407,40.1382777 107.435983,39.3210178 107.435983,38.4355433 L107.435983,14.7569165 C107.435983,13.8721324 106.96407,13.0554149 106.198751,12.6123818 L85.6977239,0.772422397 C84.9310907,0.330028688 83.987264,0.330028688 83.2206308,0.772422397 L62.7248632,12.6123818 C61.9587231,13.0554149 61.4868097,13.8721324 61.4868097,14.7569165 L61.4868097,38.4368583 C61.4868097,39.3210178 61.9587231,40.1382777 62.7253563,40.5801109 L83.2219457,52.4104907" id="path28"></path>
            <path d="M268.536947,0.434045231 C267.830146,0.434045231 267.128275,0.618964259 266.510235,0.976604235 L260.055328,4.7956983 C259.092105,5.33503725 259.562211,5.52574219 259.879449,5.6368251 C261.166486,6.08306348 261.426194,6.18579628 262.798704,6.9640013 C262.941709,7.04426437 263.130737,7.01408559 263.278672,6.92739555 L268.236146,3.98346818 C268.416955,3.88394065 268.670089,3.88394065 268.836105,3.98346818 L288.166308,15.1408906 C288.347117,15.2436234 288.462178,15.4510121 288.462178,15.6641868 L288.462178,37.9733279 C288.462178,38.1916146 288.347117,38.3957652 288.16302,38.5062235 L268.839393,49.6546219 C268.660227,49.7586696 268.42353,49.7586696 268.242721,49.6546219 L248.924024,38.502936 C248.73664,38.3957652 248.618291,38.185204 248.618291,37.9733279 L248.618291,15.6641868 C248.618291,15.4510121 248.73664,15.2487518 248.922381,15.1473011 L254.218462,12.0878035 C257.091692,10.6514675 258.852121,12.3433534 258.852121,14.0429318 L258.852121,36.069566 C258.852121,36.3808874 259.101968,36.6267887 259.412632,36.6267887 L261.865069,36.6267887 C262.170802,36.6267887 262.423935,36.3808874 262.423935,36.069566 L262.423935,14.0429318 C262.423935,10.2084344 260.336405,8.00931158 256.700486,8.00931158 C255.582753,8.00931158 254.70336,8.00931158 252.247636,9.21961895 L247.178389,12.1378878 C245.92587,12.8615047 245.151676,14.2150134 245.151676,15.6641868 L245.151676,37.9733279 C245.151676,39.4230931 245.92587,40.7758785 247.178389,41.4969806 L266.510235,52.6672405 C267.733166,53.359413 269.35881,53.359413 270.571879,52.6672405 L289.902081,41.4969806 C291.154599,40.7727555 291.932081,39.4230931 291.932081,37.9733279 L291.932081,15.6641868 C291.932081,14.2150134 291.154599,12.8666331 289.902081,12.1378878 L270.571879,0.976604235 C269.953838,0.618964259 269.253611,0.434045231 268.536947,0.434045231" id="path30"></path>
            <path d="M274.508599,15.80415 C266.048348,15.80415 264.276413,19.6868907 264.276413,22.9440955 C264.276413,23.2536089 264.526259,23.5008251 264.835279,23.5008251 L267.335385,23.5008251 C267.614818,23.5008251 267.846583,23.3004551 267.890964,23.0275968 C268.267377,20.4829466 269.393328,19.1988688 274.508599,19.1988688 C278.580105,19.1988688 280.314235,20.1201765 280.314235,22.2808526 C280.314235,23.5264672 279.822761,24.4510623 273.494421,25.0705822 C268.204915,25.5939441 264.933903,26.762468 264.933903,30.9939085 C264.933903,34.8944672 268.221352,37.2206664 273.732761,37.2206664 C279.926316,37.2206664 282.990219,35.0710032 283.378138,30.459698 C283.392931,30.3004211 283.337045,30.1482121 283.231846,30.0293709 C283.125004,29.9184194 282.977069,29.8508623 282.822559,29.8508623 L280.312591,29.8508623 C280.052883,29.8508623 279.822761,30.0357814 279.770162,30.2876 C279.168559,32.9650632 277.704,33.8209506 273.732761,33.8209506 C269.286486,33.8209506 268.770356,32.2715757 268.770356,31.1112704 C268.770356,29.7052283 269.380178,29.2956121 275.383061,28.5013644 C281.323482,27.7159927 284.145757,26.604013 284.145757,22.4284591 C284.145757,18.2164146 280.633117,15.80415 274.508599,15.80415" id="path32"></path>
            <path d="M206.816729,31.5453781 C206.964664,31.6308518 207.145474,31.6308518 207.291765,31.5453781 L211.226842,29.2755587 C211.373134,29.1909069 211.463538,29.0342599 211.463538,28.8641344 L211.463538,24.3213725 C211.463538,24.151247 211.373134,23.9946 211.226842,23.9097838 L207.291765,21.6399644 C207.145474,21.5546551 206.964664,21.5546551 206.816729,21.6399644 L202.886583,23.9097838 C202.738648,23.9946 202.648243,24.151247 202.648243,24.3213725 L202.648243,28.8641344 C202.648243,29.0342599 202.738648,29.1909069 202.886583,29.2755587 L206.816729,31.5453781" id="path38"></path>
        </g>
    </g>
</svg>