<?xml version="1.0" encoding="UTF-8"?>
<svg width="93px" height="96px" viewBox="0 0 93 96" version="1.1" xmlns="http://www.w3.org/2000/svg" xmlns:xlink="http://www.w3.org/1999/xlink">
    <title>postgres-logo</title>
    <defs>
        <filter id="filter-1">
            <feColorMatrix in="SourceGraphic" type="matrix" values="0 0 0 0 0.603922 0 0 0 0 0.603922 0 0 0 0 0.603922 0 0 0 1.000000 0"></feColorMatrix>
        </filter>
    </defs>
    <g id="Page-1" stroke="none" stroke-width="1" fill="none" fill-rule="evenodd">
        <g id="postgres-logo" transform="translate(-817.000000, -54.000000)" filter="url(#filter-1)">
            <g transform="translate(817.000000, 54.500000)">
                <path d="M66.2595312,0 C62.5634375,0.03265625 58.9,0.558125 55.3434375,1.59125 L55.0970313,1.67140625 C52.8675,1.2825 50.5964063,1.06875 48.3401563,1.02125 C43.6703125,0.94109375 39.6625,2.06921875 36.4325,3.95734375 C33.2470313,2.861875 26.6445313,0.94109375 19.6857813,1.33 C14.8496875,1.59125 9.559375,3.06078125 5.62875,7.20515625 C1.73375,11.3346875 -0.33546875,17.7353125 0.095,26.4575 C0.21671875,28.8532813 0.89953125,32.763125 2.0425,37.8485938 C3.170625,42.9221875 4.76484375,48.8596875 6.75984375,54.2865625 C8.75484375,59.6985938 10.9309375,64.5673438 14.3360938,67.8745313 C16.0342188,69.528125 18.3854688,70.9382813 21.1523438,70.8165625 C23.0879688,70.7364063 24.8335938,69.8873438 26.350625,68.6345313 C27.0898438,69.6082813 27.8825,70.0239063 28.5920313,70.4128125 C29.5064063,70.9085938 30.3703125,71.2470313 31.2846875,71.4667188 C32.9234375,71.8823438 35.7229687,72.425625 39.0004688,71.8675 C40.11375,71.6804688 41.289375,71.3123438 42.465,70.8017188 C42.5125,72.0990625 42.56,73.3815625 42.6045313,74.681875 C42.77375,78.77875 42.8865625,82.566875 44.10375,85.891875 C44.305625,86.4351563 44.8489063,89.216875 46.9804688,91.6898438 C49.1298438,94.1628125 53.3009375,95.6946875 58.080625,94.6734375 C61.4382813,93.9609375 65.7192188,92.6635938 68.56625,88.6142188 C71.380625,84.6242188 72.6482813,78.8885938 72.8976563,69.5785938 C72.9570313,69.0679688 73.0371875,68.6523438 73.1114063,68.2485938 L73.7764063,68.3109375 L73.8565625,68.3109375 C77.4428125,68.4653125 81.3407813,67.9546875 84.6034375,66.4376563 C87.4771875,65.1076563 89.6592188,63.7628125 91.2504688,61.3670313 C91.639375,60.77625 92.0846875,60.051875 92.1975,58.8139063 C92.3192188,57.59375 91.6067188,55.658125 90.4310938,54.7645313 C88.0828125,52.9714063 86.5984375,53.65125 85.0042188,53.9926563 C83.445625,54.3340625 81.8484375,54.5151563 80.2571875,54.5626563 C84.8320313,46.8646875 88.1095313,38.6709375 89.9828125,31.4301563 C91.0960938,27.14625 91.7165625,23.20375 91.7610938,19.7570313 C91.8234375,16.3103125 91.5325,13.264375 89.4721875,10.6221875 C83.0092188,2.3809375 73.9307813,0.0890625 66.9126563,0.01484375 C66.6959375,0.01484375 66.4821875,0.01484375 66.2625,0.01484375 L66.2595312,0 Z M66.0725,2.53828125 C72.7076562,2.4759375 81.1923437,4.33140625 87.2842187,12.1214062 C88.6617187,13.87 89.0654687,16.4201563 89.0179687,19.5759375 C88.9704687,22.7317187 88.385625,26.4871875 87.316875,30.6167188 C85.2625,38.629375 81.3467187,47.9334375 75.8604687,56.3023438 C76.0475,56.441875 76.26125,56.5635938 76.4779688,56.64375 C77.6209375,57.1217188 80.2334375,57.5225 85.4584375,56.4567188 C86.7735937,56.1746875 87.7354687,55.9935938 88.7389062,56.750625 C89.2346875,57.16625 89.4959375,57.7867188 89.4632812,58.436875 C89.4039062,58.9148438 89.2346875,59.3779688 88.9378125,59.766875 C87.9314062,61.2779688 85.9423437,62.7207813 83.3892187,63.91125 C81.1329687,64.9592188 77.8821875,65.5025 75.02625,65.5351563 C73.5745312,65.55 72.2445312,65.4401563 71.1104687,65.0839063 L71.0510937,65.0720313 C70.6146875,69.2609375 69.6142187,77.5496875 68.9610937,81.32 C68.4385937,84.3629687 67.5242187,86.794375 65.7785937,88.6023438 C64.03,90.428125 61.571875,91.50875 58.246875,92.22125 C54.1351562,93.1029688 51.1485937,92.1589063 49.2189062,90.535 C47.2892187,88.9110937 46.4045312,86.746875 45.8790625,85.4317188 C45.5109375,84.5203125 45.3239062,83.3446875 45.1398437,81.7653125 C44.9528125,80.1889063 44.8310937,78.2710938 44.7360937,76.0920312 C44.614375,72.7670313 44.566875,69.4420313 44.614375,66.1021875 C42.9014062,67.6815625 40.766875,68.7146875 38.475,69.1184375 C35.7407812,69.5815625 33.3123437,69.1184375 31.860625,68.7621875 C31.148125,68.5751562 30.4504687,68.3139063 29.8032812,67.9576562 C29.1234375,67.6014062 28.488125,67.200625 28.0576562,66.393125 C27.8082813,65.93 27.7340625,65.3926562 27.8409375,64.8820312 C27.9626562,64.3565625 28.2714062,63.9082812 28.6929688,63.566875 C29.4796875,62.9285937 30.51875,62.5782812 32.0773438,62.2517187 C34.924375,61.6609375 35.9278125,61.263125 36.5304688,60.7792187 C37.0410938,60.3784375 37.631875,59.5442187 38.6471875,58.3210937 C38.6471875,58.2765625 38.6471875,58.2142187 38.6323437,58.1667187 C36.7946875,58.1073437 34.9985937,57.629375 33.3746875,56.7446875 C32.7898437,57.3621875 29.7409375,60.5803125 26.0478125,65.0334375 C24.5010937,66.8859375 22.7851562,67.9546875 20.9623438,68.0348437 C19.154375,68.1090625 17.5096875,67.200625 16.1203125,65.8528125 C13.3385938,63.1453125 11.1090625,58.4903125 9.17640625,53.2326562 C7.24375,47.975 5.6821875,42.1176562 4.5540625,37.1390625 C3.44078125,32.1426562 2.77578125,28.1229687 2.68078125,26.1903125 C2.26515625,17.9490625 4.1978125,12.4004687 7.505,8.8884375 C10.8121875,5.37640625 15.3454688,4.06421875 19.7689063,3.80296875 C27.7014062,3.3546875 35.245,6.1215625 36.7620312,6.709375 C39.698125,4.714375 43.48625,3.479375 48.2184375,3.55359375 C50.4628125,3.58625 52.6864062,3.8771875 54.8684375,4.42046875 L54.9485938,4.37296875 C55.9075,4.049375 56.88125,3.75546875 57.8698438,3.54171875 C60.5625,2.9034375 63.3115625,2.57984375 66.0635937,2.5353125 L66.0725,2.53828125 Z M66.6751562,5.18046875 L66.0903125,5.18046875 C63.8340625,5.2071875 61.5570312,5.474375 59.3482812,5.95234375 C64.279375,8.134375 68.0051562,11.4860937 70.6325,14.8585937 C72.4582812,17.1771875 73.9575,19.7273437 75.1004687,22.4496875 C75.5517187,23.5035938 75.845625,24.3823437 76,25.0621875 C76.0920312,25.4035937 76.1395312,25.6945312 76.1692187,25.9884375 C76.1692187,26.1428125 76.1840625,26.3001562 76.106875,26.5614062 C76.106875,26.57625 76.0920312,26.6089062 76.0920312,26.62375 C76.2196875,30.0882812 75.3528125,32.4335938 75.24,35.74375 C75.1657812,38.1425 75.7832812,40.956875 75.9376562,44.0325 C76.0771875,46.9210937 75.7239062,50.0917187 73.850625,53.2148437 C74.005,53.401875 74.1445312,53.5859375 74.2989062,53.7878125 C79.2626562,45.9621875 82.8489062,37.3201562 84.751875,29.9428125 C85.773125,25.9676562 86.3104687,22.3665625 86.3579687,19.5254687 C86.4054687,16.6784375 85.88,14.60625 85.1971875,13.7423437 C79.8771875,6.9528125 72.6898437,5.2190625 66.6721875,5.1775 L66.6751562,5.18046875 Z M47.701875,6.19875 C43.035,6.21359375 39.6773438,7.62375 37.1301563,9.74046875 C34.496875,11.9373438 32.7364063,14.9209375 31.5934375,17.9965625 C30.2159375,21.6303125 29.7379688,25.1542188 29.5509375,27.5529688 L29.6132813,27.5203125 C31.0234375,26.7335938 32.8759375,25.9290625 34.8709375,25.4807813 C36.8510938,25.0146875 39.0004688,24.8751563 40.9301563,25.6351563 C42.880625,26.374375 44.471875,28.1526563 45.0596875,30.8275 C47.8473438,43.72375 44.1957813,48.5182813 42.8509375,52.1342188 C42.3403125,53.449375 41.8920313,54.779375 41.5357813,56.1390625 C41.705,56.1064063 41.8771875,56.0589062 42.0464063,56.0440625 C43.0053125,55.9698438 43.7445313,56.2785938 44.1809375,56.4626563 C45.5435937,57.0326563 46.4698437,58.2082812 46.9804688,59.553125 C47.1021875,59.909375 47.1942188,60.2775 47.2565625,60.68125 C47.3040625,60.835625 47.3367188,61.0048438 47.3367188,61.1770313 C47.1823438,66.108125 47.1942188,71.0421875 47.38125,75.9732813 C47.47625,78.1078125 47.6157813,79.978125 47.785,81.4625 C47.9542188,82.9320313 48.1857813,84.0601563 48.343125,84.4460938 C48.8507813,85.71375 49.5929688,87.3673438 50.9407813,88.4954688 C52.2707813,89.6265625 54.185625,90.36875 57.6976563,89.6265625 C60.740625,88.9615625 62.6139062,88.0620313 63.86375,86.7646875 C65.1195312,85.4495313 65.85875,83.6415625 66.3367187,80.8746875 C67.0640625,76.7154688 68.5009375,64.6534375 68.673125,62.3971875 C68.5989062,60.6782813 68.8423437,59.3660938 69.4004687,58.3596875 C69.955625,57.3384375 70.8225,56.7060938 71.5825,56.3646875 C71.950625,56.1954688 72.306875,56.0885938 72.6007812,55.9935938 C72.2920312,55.563125 71.9684375,55.1296875 71.641875,54.7110938 C70.56125,53.3959375 69.6617187,51.929375 68.9967187,50.3678125 C68.6879688,49.7146875 68.3465625,49.0645313 67.9754688,48.4470313 C67.4529687,47.5059375 66.7879688,46.3125 66.0903125,44.9676563 C64.6979688,42.3076563 63.1839062,39.0628125 62.3942187,35.9070313 C61.6075,32.75125 61.500625,29.4915625 63.5104687,27.2026563 C65.28875,25.1601563 68.4267187,24.3140625 73.1084375,24.7920313 C72.9689062,24.3734375 72.8946875,24.0171875 72.6601562,23.476875 C71.594375,20.97125 70.2020313,18.62 68.530625,16.4854688 C64.5554687,11.4 58.1073437,6.35609375 48.1679687,6.186875 L47.701875,6.19875 Z M21.4195313,6.400625 C20.92375,6.400625 20.413125,6.41546875 19.9203125,6.448125 C15.9154688,6.68265625 12.1421875,7.8375 9.4346875,10.699375 C6.73015625,13.5760938 4.95484375,18.2607813 5.3378125,26.0389063 C5.41796875,27.5232813 6.0503125,31.635 7.14578125,36.5364063 C8.2471875,41.4407813 9.80578125,47.2090625 11.6790625,52.309375 C13.5464063,57.3948438 15.8085938,61.833125 17.9728125,63.935 C19.0534375,64.9710938 19.9945313,65.4045313 20.8465625,65.3748438 C21.6985938,65.3273438 22.7346875,64.8315625 24.0023438,63.3175 C26.3060938,60.5357813 28.69,57.843125 31.1629687,55.2157813 C27.6034375,52.1075 25.8578125,47.4109375 26.5554687,42.738125 C26.95625,39.816875 27.0185938,37.0767188 26.95625,34.9125 C26.9117187,32.810625 26.7692188,31.42125 26.7692188,30.5395313 C26.7692188,30.506875 26.7692188,30.4920313 26.7692188,30.459375 L26.7692188,30.4445313 L26.754375,30.4178125 C26.754375,25.8548438 27.561875,21.3423438 29.105625,17.0584375 C30.2189062,14.1015625 31.860625,11.1209375 34.330625,8.68953125 C31.9051562,7.885 27.5885937,6.68265625 22.9217187,6.448125 C22.4259375,6.41546875 21.9153125,6.400625 21.4225,6.400625 L21.4195313,6.400625 Z M70.4929687,27.3035938 C67.80625,27.3510938 66.3040625,28.04875 65.5025,28.9423437 C64.38625,30.2278125 64.279375,32.4840625 64.9770312,35.26875 C65.66875,38.0504688 67.1115625,41.15875 68.4564062,43.7445313 C69.1214062,45.041875 69.7715625,46.2026563 70.2940625,47.14375 C70.8373437,48.1026563 71.2232812,48.7676563 71.4548437,49.3554688 C71.6715625,49.8809375 71.9209375,50.3440625 72.1673437,50.7775 C73.2034375,48.580625 73.3904687,46.43125 73.280625,44.175 C73.1410937,41.3932813 72.4939062,38.54625 72.6007812,35.6725 C72.710625,32.3 73.375625,30.103125 73.423125,27.5054687 C72.46125,27.38375 71.4726562,27.3035938 70.4989062,27.3035938 L70.4929687,27.3035938 Z M37.9020313,27.7726563 C37.0826562,27.7726563 36.2632813,27.8795313 35.45875,28.0665625 C33.8645312,28.4554688 32.335625,29.0403125 30.8957812,29.8448438 C30.4178125,30.1060938 29.9546875,30.4029688 29.52125,30.744375 L29.42625,30.8185938 C29.4589062,31.409375 29.5657813,32.79875 29.6132813,34.8709375 C29.6607813,37.1271875 29.6132813,40.0009375 29.1828125,43.1121875 C28.2239063,49.8839063 33.1401563,55.4829688 38.9084375,55.4978125 C39.2498438,54.1054688 39.8020313,52.6953125 40.3601563,51.2139063 C41.96625,46.8825 45.1220313,43.7296875 42.4620313,31.3915625 C42.0315625,29.3817188 41.1646875,28.5623438 39.97125,28.0992188 C39.30625,27.8646875 38.6145313,27.7578125 37.9020313,27.775625 L37.9020313,27.7726563 Z M69.243125,28.5742188 L69.445,28.5742188 C69.6914063,28.5890625 69.9407813,28.606875 70.1545313,28.66625 C70.3564063,28.71375 70.5434375,28.7760938 70.6978125,28.8829688 C70.8521875,28.975 70.9590625,29.129375 70.9917188,29.3134375 L70.9917188,29.3460938 C70.9917188,29.533125 70.9442188,29.7171875 70.8521875,29.889375 C70.7304688,30.103125 70.5909375,30.305 70.4217188,30.4742187 C70.0179688,30.9225 69.4746875,31.219375 68.8898438,31.3084375 C68.316875,31.3885937 67.746875,31.2342188 67.2659375,30.9076563 C67.0789063,30.7651563 66.8948438,30.6107813 66.7553125,30.4415625 C66.6157813,30.3020313 66.5385938,30.1179688 66.5059375,29.9309375 C66.4940625,29.7498438 66.5385938,29.5628125 66.6603125,29.4232813 C66.8028125,29.2807813 66.9571875,29.1590625 67.1264063,29.0670313 C67.509375,28.8503125 68.02,28.6959375 68.6107813,28.6157813 C68.8245313,28.5890625 69.04125,28.57125 69.243125,28.5564063 L69.243125,28.5742188 Z M38.285,29.2392187 C38.486875,29.2392187 38.7214062,29.2540625 38.938125,29.28375 C39.555625,29.37875 40.0810938,29.533125 40.4967187,29.7795313 C40.6985938,29.8745313 40.885625,30.0289063 41.0221875,30.198125 C41.1765625,30.3851563 41.2507813,30.61375 41.2389062,30.863125 C41.1914062,31.0917188 41.0964063,31.3114063 40.9420312,31.480625 C40.7728125,31.6825 40.58875,31.8517188 40.3720312,31.99125 C39.8614062,32.3623438 39.2290625,32.5167188 38.59375,32.4395313 C37.9554688,32.3326563 37.370625,32.0239063 36.9401562,31.5459375 C36.753125,31.3440625 36.59875,31.1273438 36.4740625,30.8957813 C36.3345312,30.6790625 36.2751562,30.4326563 36.3048437,30.1832813 C36.3671875,29.7676563 36.7234375,29.533125 37.0648437,29.4114063 C37.45375,29.28375 37.869375,29.2421875 38.285,29.2570313 L38.285,29.2392187 Z M74.1445312,58.30625 L74.1296875,58.30625 C73.5596875,58.5229688 73.0817187,58.603125 72.6779688,58.7901563 C72.2623437,58.9445313 71.9328125,59.2532813 71.736875,59.63625 C71.4726562,60.0875 71.27375,60.8920313 71.333125,62.2635938 C71.5023437,62.39125 71.7042187,62.4803125 71.9239063,62.545625 C72.5889063,62.7475 73.731875,62.8870313 74.9995313,62.8692188 C77.52,62.8365625 80.6282813,62.2517188 82.281875,61.476875 C83.6267187,60.859375 84.894375,60.0251563 86.0076562,59.0514063 C80.48875,60.1795313 77.3834375,59.885625 75.4626562,59.0989063 C74.9995313,58.8970312 74.55125,58.6328125 74.1475,58.30625 L74.1445312,58.30625 Z M42.3551563,58.6773438 L42.275,58.6773438 C42.06125,58.6921875 41.764375,58.7723438 41.1617188,59.4225 C39.7842188,60.96625 39.30625,61.94 38.178125,62.8395313 C37.0351563,63.7509375 35.565625,64.231875 32.6117188,64.8345313 C31.6854688,65.0215625 31.1421875,65.2353125 30.7859375,65.4045313 C30.8928125,65.4995313 30.8928125,65.5321875 31.0620313,65.6064063 C31.4984375,65.8557813 32.050625,66.0576563 32.501875,66.179375 C33.7695313,66.488125 35.83875,66.8592188 38.0207813,66.488125 C40.185,66.1170313 42.44125,65.0779688 44.376875,62.3764063 C44.7182813,61.9132813 44.745,61.215625 44.4689063,60.4734375 C44.1928125,59.7490625 43.5871875,59.0989063 43.1715625,58.9296875 C42.9073438,58.8020313 42.6282813,58.7278125 42.3521875,58.6803125 L42.3551563,58.6773438 Z" id="Shape" fill="#000000" fill-rule="nonzero"></path>
            </g>
        </g>
    </g>
</svg>