<?xml version="1.0" encoding="UTF-8"?>
<svg width="92px" height="95px" viewBox="0 0 92 95" version="1.1" xmlns="http://www.w3.org/2000/svg" xmlns:xlink="http://www.w3.org/1999/xlink">
    <title>postgres-logo</title>
    <g id="Page-1" stroke="none" stroke-width="1" fill="none" fill-rule="evenodd">
        <g id="postgres-logo" transform="translate(0.588235, 0.441176)" fill="#C4C4C4" fill-rule="nonzero">
            <path d="M64.9603247,0.490196078 C61.3367034,0.52221201 57.745098,1.03737745 54.2582721,2.0502451 L54.0166974,2.12882966 C51.8308824,1.74754902 49.6043199,1.5379902 47.3923101,1.49142157 C42.8140319,1.41283701 38.8848039,2.51884191 35.7181373,4.36994485 C32.5951287,3.29595588 26.1220895,1.41283701 19.2997856,1.79411765 C14.5585172,2.0502451 9.37193627,3.49096201 5.51838235,7.55407475 C1.6997549,11.6026348 -0.328890931,17.8777574 0.0931372549,26.4289216 C0.212469363,28.7777268 0.881893382,32.6109069 2.00245098,37.5966606 C3.10845588,42.5707721 4.67141544,48.3918505 6.62729779,53.7123162 C8.58318015,59.0182292 10.7166054,63.7915135 14.0549939,67.0338542 C15.7198224,68.6550245 18.0249694,70.0375307 20.737592,69.9181985 C22.6352635,69.839614 24.3466606,69.0071998 25.8339461,67.7789523 C26.5586704,68.7336091 27.3357843,69.1410846 28.0314032,69.5223652 C28.9278493,70.0084253 29.7748162,70.3402268 30.6712623,70.5556067 C32.2778799,70.9630822 35.0225183,71.4957108 38.2357537,70.9485294 C39.3272059,70.7651655 40.4797794,70.4042586 41.6323529,69.9036459 C41.6789216,71.1755515 41.7254902,72.4329044 41.7691483,73.7077206 C41.935049,77.7242647 42.0456495,81.4381127 43.2389706,84.6979167 C43.4368873,85.2305454 43.969516,87.9577206 46.0592831,90.3821998 C48.1665135,92.8066789 52.2558211,94.3085172 56.9417892,93.3072917 C60.2336091,92.6087623 64.4306067,91.3368567 67.2218137,87.3668812 C69.9810049,83.4551165 71.2238052,77.8319547 71.4682905,68.7045037 C71.5265013,68.203891 71.6050858,67.7964155 71.6778493,67.4005822 L72.3298101,67.4617034 L72.4083946,67.4617034 C75.924326,67.6130515 79.745864,67.1124387 82.9445466,65.6251532 C85.7619485,64.3212317 87.9011949,63.0027574 89.4612439,60.6539523 C89.8425245,60.0747549 90.2791054,59.3645833 90.3897059,58.1508885 C90.509038,56.9546569 89.8105086,55.0569853 88.6579351,54.180913 C86.3556985,52.4229474 84.9004289,53.0894608 83.3374694,53.4241728 C81.8094363,53.7588848 80.2435662,53.9364277 78.6835172,53.9829964 C83.1686581,46.4359681 86.3818934,38.4028799 88.2184436,31.3040748 C89.3098959,27.1041667 89.9181985,23.2389706 89.9618567,19.8598346 C90.0229779,16.4806985 89.7377451,13.4944853 87.7178309,10.9041054 C81.3815871,2.82444853 72.4811581,0.577512255 65.6006434,0.504748775 C65.388174,0.504748775 65.1786152,0.504748775 64.9632353,0.504748775 L64.9603247,0.490196078 Z M64.7769608,2.97870711 C71.2820159,2.91758578 79.600337,4.73667279 85.5727634,12.3739276 C86.9232536,14.0882353 87.319087,16.5883885 87.2725183,19.6822917 C87.2259497,22.7761948 86.6525735,26.458027 85.6047794,30.5065871 C83.5906863,38.3621324 79.751685,47.4837623 74.3730085,55.6885724 C74.5563725,55.8253676 74.7659314,55.9446998 74.9784008,56.0232843 C76.0989583,56.4918812 78.6602328,56.8848039 83.7827819,55.8399204 C85.0721507,55.5634191 86.0151654,55.3858763 86.9989276,56.1280637 C87.4849877,56.5355392 87.7411152,57.143842 87.7090992,57.78125 C87.6508884,58.2498469 87.4849877,58.703891 87.1939338,59.0851716 C86.207261,60.5666361 84.2571997,61.9811581 81.754136,63.1482843 C79.5421262,64.1757047 76.3550858,64.7083333 73.5551471,64.7403493 C72.1318933,64.754902 70.8279718,64.6472121 69.7161458,64.2979474 L69.657935,64.2863052 C69.2300858,68.393076 68.249234,76.5193015 67.6089154,80.2156863 C67.0966605,83.1989889 66.2002144,85.5827206 64.4888174,87.355239 C62.7745098,89.1452206 60.3645833,90.2046569 57.1047794,90.9031863 C53.0736825,91.7676165 50.1456801,90.842065 48.2538296,89.25 C46.3619791,87.657935 45.4946384,85.536152 44.979473,84.2467831 C44.6185662,83.3532475 44.4352022,82.200674 44.2547487,80.6522672 C44.0713848,79.1067709 43.9520526,77.2265625 43.8589154,75.0902267 C43.7395833,71.8304228 43.6930147,68.5706189 43.7395833,65.2962623 C42.0602022,66.8446691 39.9675245,67.8575368 37.7205882,68.2533701 C35.0399816,68.7074142 32.6591605,68.2533701 31.2359069,67.9041054 C30.5373775,67.7207414 29.8534007,67.464614 29.2189031,67.1153492 C28.5523897,66.7660845 27.9295343,66.3731618 27.5075061,65.5814951 C27.2630209,65.127451 27.1902574,64.6006433 27.2950368,64.1000306 C27.4143688,63.5848652 27.7170649,63.1453737 28.1303616,62.8106618 C28.9016544,62.1848958 29.9203431,61.8414522 31.4483763,61.5212928 C34.2395833,60.9420956 35.2233456,60.5520833 35.8141851,60.0776654 C36.3147978,59.6847426 36.8939951,58.8668811 37.8893995,57.6677389 C37.8893995,57.6240809 37.8893995,57.5629595 37.8748468,57.5163909 C36.073223,57.4581801 34.3123468,56.9895833 32.7202819,56.1222426 C32.1469056,56.7276348 29.1577819,59.8826593 25.5370711,64.2484681 C24.0206801,66.0646446 22.3383884,67.1124387 20.5513175,67.1910232 C18.778799,67.2637868 17.1663603,66.3731618 15.8042279,65.051777 C13.0770527,62.3973652 10.8912377,57.8336397 8.99647672,52.6790747 C7.10171569,47.5245098 5.57077206,41.7820159 4.46476716,36.9010417 C3.37331495,32.0026041 2.72135417,28.061734 2.62821691,26.166973 C2.22074142,18.0873162 4.11550245,12.6475183 7.35784314,9.20435049 C10.6001838,5.7611826 15.0445773,4.47472426 19.3812807,4.21859681 C27.1582414,3.77910539 34.5539216,6.49172794 36.0412071,7.06801471 C38.9197304,5.11213235 42.6335784,3.90134804 47.2729779,3.97411152 C49.4733456,4.00612745 51.6533394,4.29136029 53.7925858,4.82398897 L53.8711704,4.77742034 C54.8112745,4.46017157 55.7659314,4.17202819 56.735141,3.96246936 C59.375,3.33670343 62.0701593,3.01945466 64.7682291,2.97579657 L64.7769608,2.97870711 Z M65.3678002,5.56908701 L64.794424,5.56908701 C62.5824142,5.59528186 60.3500306,5.85723039 58.1845894,6.32582721 C63.0189951,8.46507353 66.6717218,11.7510723 69.247549,15.0574448 C71.0375306,17.330576 72.5073529,19.8307291 73.6279105,22.4996936 C74.0703125,23.5329351 74.3584559,24.3944546 74.5098039,25.0609681 C74.6000306,25.3956801 74.6465992,25.6809129 74.6757046,25.9690564 C74.6757046,26.1204044 74.6902574,26.2746629 74.6145833,26.5307904 C74.6145833,26.5453431 74.6000306,26.577359 74.6000306,26.5919118 C74.7251838,29.988511 73.8753064,32.2878371 73.7647059,35.5330882 C73.6919424,37.8848039 74.2973345,40.6439951 74.4486825,43.6593137 C74.5854779,46.4912683 74.2391237,49.5997242 72.4025735,52.6616115 C72.5539216,52.8449755 72.6907169,53.0254289 72.8420649,53.2233456 C77.7084865,45.5511642 81.2244178,37.0785845 83.0900735,29.8458946 C84.091299,25.9486825 84.6181066,22.4181985 84.6646752,19.6328125 C84.7112438,16.8416054 84.1960784,14.810049 83.5266544,13.9630821 C78.3109681,7.30667892 71.2645526,5.60692402 65.3648897,5.56617647 L65.3678002,5.56908701 Z M46.7665441,6.56740196 C42.1911765,6.58195466 38.8993567,7.96446078 36.402114,10.0396752 C33.8204657,12.1934743 32.094516,15.1185662 30.9739583,18.1338848 C29.6234681,21.6963848 29.1548714,25.1511949 28.9715074,27.5029106 L29.0326287,27.4708946 C30.4151348,26.6996018 32.2313113,25.9108456 34.1871936,25.4713542 C36.1285233,25.0143995 38.2357537,24.8776042 40.1276042,25.6227023 C42.0398284,26.3474265 43.5998775,28.0908395 44.1761642,30.7132353 C46.9091606,43.3566176 43.3291974,48.0571385 42.010723,51.6021753 C41.5101103,52.8915441 41.0706189,54.1954657 40.7213542,55.5284926 C40.8872549,55.4964768 41.0560662,55.449908 41.221967,55.4353554 C42.1620711,55.362592 42.8867954,55.665288 43.3146446,55.8457415 C44.6505821,56.404565 45.5586703,57.5571384 46.0592831,58.8756127 C46.1786152,59.2248775 46.268842,59.5857843 46.3299632,59.9816176 C46.3765319,60.1329657 46.4085478,60.2988665 46.4085478,60.4676777 C46.2571998,65.3020833 46.268842,70.1393995 46.4522059,74.9738052 C46.5453431,77.0664828 46.6821385,78.9001225 46.8480392,80.3553922 C47.01394,81.7961091 47.2409621,82.902114 47.3952206,83.2804841 C47.8929228,84.5232843 48.6205576,86.1444547 49.9419425,87.2504596 C51.245864,88.359375 53.1231618,89.0870098 56.5663297,88.359375 C59.5496324,87.7074142 61.3861825,86.8255209 62.6115196,85.5536152 C63.8426776,84.2642464 64.567402,82.4917279 65.0359987,79.7791054 C65.7490809,75.70144 67.1577819,63.8759191 67.3265931,61.6639093 C67.2538296,59.9787072 67.4924938,58.6922488 68.0396752,57.705576 C68.5839461,56.7043505 69.4338235,56.0844057 70.1789216,55.7496936 C70.5398284,55.5837929 70.8890931,55.4790135 71.1772365,55.3858763 C70.8745404,54.963848 70.5572917,54.5389093 70.2371324,54.1285233 C69.1776961,52.8391544 68.2958026,51.401348 67.6438419,49.8704044 C67.3411459,49.2300858 67.0064338,48.5926777 66.6426165,47.9872856 C66.1303615,47.0646446 65.4784008,45.8946078 64.794424,44.5761336 C63.4293812,41.9682905 61.9450061,38.7870711 61.1708026,35.6931679 C60.3995098,32.5992647 60.2947304,29.4034926 62.2651654,27.159467 C64.0085784,25.157016 67.0850183,24.3275123 71.6749387,24.7961091 C71.5381433,24.385723 71.4653799,24.0364583 71.2354473,23.5067402 C70.1905637,21.0502451 68.8255209,18.745098 67.1868873,16.6524204 C63.2896752,11.6666667 56.967984,6.72166054 47.2234987,6.5557598 L46.7665441,6.56740196 Z M20.9995405,6.76531863 C20.5134804,6.76531863 20.0128676,6.77987132 19.5297181,6.81188725 C15.6034008,7.04181985 11.9041054,8.17401961 9.24969363,10.9797794 C6.5981924,13.800092 4.85768995,18.3929228 5.23314951,26.0185356 C5.31173407,27.4738052 5.93167892,31.504902 7.00566789,36.3102023 C8.08547794,41.118413 9.61351103,46.7735907 11.4500613,51.7738971 C13.2807905,56.7596508 15.4986214,61.1109069 17.6204044,63.1715686 C18.6798407,64.1873469 19.6024817,64.6122856 20.4378064,64.5831802 C21.2731312,64.5366116 22.2889093,64.0505515 23.5317096,62.5661765 C25.790288,59.8390013 28.127451,57.1991422 30.5519301,54.623315 C27.0621936,51.5759804 25.3507966,46.9715074 26.0347732,42.3903186 C26.4276961,39.526348 26.4888175,36.8399204 26.4276961,34.7181373 C26.3840379,32.6574755 26.2443322,31.2953431 26.2443322,30.430913 C26.2443322,30.3988971 26.2443322,30.3843444 26.2443322,30.3523284 L26.2443322,30.3377758 L26.2297794,30.3115809 C26.2297794,25.8380822 27.0214461,21.4140625 28.5349265,17.2141544 C29.6263786,14.3152574 31.2359069,11.393076 33.6574755,9.00934436 C31.2795649,8.22058824 27.0476409,7.04181985 22.4722732,6.81188725 C21.9862132,6.77987132 21.4856005,6.76531863 21.002451,6.76531863 L20.9995405,6.76531863 Z M69.1107536,27.2584253 C66.4767157,27.3049939 65.0039828,27.9889706 64.2181373,28.8650428 C63.1237745,30.1253064 63.0189951,32.3373162 63.7029718,35.067402 C64.3811275,37.7945773 65.7956495,40.8419118 67.1141237,43.3769915 C67.7660845,44.6488971 68.4034926,45.7869179 68.9157475,46.7095588 C69.4483762,47.649663 69.8267463,48.3016238 70.0537683,48.8779106 C70.2662377,49.393076 70.510723,49.8471201 70.7522977,50.2720588 C71.768076,48.1182598 71.9514399,46.0110294 71.84375,43.7990196 C71.7069546,41.0718444 71.0724571,38.2806373 71.1772365,35.4632353 C71.2849265,32.1568627 71.9368873,30.0030637 71.9834559,27.4563419 C71.0404412,27.3370098 70.0712316,27.2584253 69.1165747,27.2584253 L69.1107536,27.2584253 Z M37.1588542,27.7182905 C36.3555453,27.7182905 35.5522366,27.8230699 34.7634804,28.0064338 C33.2005208,28.3877145 31.7015931,28.9610907 30.2899816,29.7498469 C29.8213848,30.0059743 29.3673407,30.2970282 28.942402,30.6317402 L28.8492647,30.7045037 C28.8812806,31.283701 28.9860601,32.6458333 29.0326287,34.6773897 C29.0791974,36.8893995 29.0326287,39.7068015 28.6106005,42.7570466 C27.6704964,49.3959866 32.4903493,54.8852635 38.145527,54.8998162 C38.480239,53.5347733 39.0215993,52.1522672 39.5687807,50.6999081 C41.1433824,46.4534314 44.2372856,43.3624387 41.6294425,31.2662377 C41.2074142,29.2958027 40.3575368,28.4924939 39.1875,28.0384498 C38.5355392,27.8085172 37.8573836,27.7037377 37.1588542,27.721201 L37.1588542,27.7182905 Z M67.8854167,28.5041361 L68.0833333,28.5041361 C68.3249081,28.5186887 68.5693934,28.536152 68.7789523,28.5943627 C68.9768689,28.6409314 69.1602328,28.7020527 69.3115809,28.8068322 C69.4629289,28.8970588 69.5677083,29.0484069 69.5997243,29.2288603 L69.5997243,29.2608763 C69.5997243,29.4442402 69.5531557,29.6246936 69.4629289,29.7935049 C69.3435969,30.0030637 69.2068015,30.2009804 69.0409008,30.3668811 C68.6450675,30.8063725 68.1124387,31.0974265 67.5390625,31.1847426 C66.9773284,31.2633272 66.4185049,31.1119792 65.9469975,30.7918199 C65.7636336,30.652114 65.5831802,30.500766 65.4463848,30.3348652 C65.3095895,30.1980699 65.2339155,30.0176165 65.2018995,29.8342525 C65.1902574,29.6567096 65.2339155,29.4733456 65.3532475,29.3365503 C65.4929534,29.1968444 65.6443015,29.0775123 65.8102023,28.9872856 C66.1856618,28.7748162 66.6862745,28.6234681 67.2654719,28.5448836 C67.4750307,28.5186887 67.6875,28.5012255 67.8854167,28.4866728 L67.8854167,28.5041361 Z M37.5343137,29.1560968 C37.7322304,29.1560968 37.9621629,29.1706495 38.1746324,29.1997549 C38.7800245,29.2928922 39.29519,29.4442402 39.7026654,29.685815 C39.9005822,29.7789523 40.0839461,29.9303003 40.2178309,30.096201 C40.3691789,30.279565 40.4419425,30.5036765 40.4303002,30.7481618 C40.3837316,30.9722733 40.2905944,31.1876532 40.1392463,31.3535539 C39.9733456,31.5514706 39.7928922,31.7173714 39.5804227,31.8541667 C39.07981,32.2179841 38.4598652,32.3693322 37.8370098,32.2936581 C37.2112439,32.1888787 36.6378676,31.8861826 36.2158394,31.4175858 C36.0324755,31.2196691 35.8811275,31.0071998 35.7588848,30.7801777 C35.6220894,30.5677083 35.5638786,30.3261336 35.592984,30.0816483 C35.6541054,29.6741728 36.0033701,29.4442402 36.3380821,29.3249081 C36.7193627,29.1997549 37.1268382,29.1590074 37.5343137,29.1735601 L37.5343137,29.1560968 Z M72.6907169,57.6531863 L72.6761642,57.6531863 C72.1173407,57.8656557 71.6487438,57.9442402 71.2529106,58.1276042 C70.845435,58.2789523 70.5223652,58.5816483 70.3302696,58.9571078 C70.0712316,59.3995098 69.8762255,60.188266 69.9344363,61.5329351 C70.100337,61.6580882 70.2982536,61.7454044 70.5136336,61.8094363 C71.1655944,62.0073529 72.286152,62.1441483 73.5289523,62.1266851 C76,62.0946691 79.0473346,61.5212929 80.6685049,60.7616422 C81.9869791,60.15625 83.2297794,59.3383885 84.3212316,58.3837317 C78.9105392,59.4897366 75.8661152,59.2015931 73.9829963,58.4303003 C73.5289523,58.2323835 73.0894608,57.9733456 72.6936275,57.6531863 L72.6907169,57.6531863 Z M41.524663,58.0170037 L41.4460784,58.0170037 C41.2365196,58.0315564 40.9454657,58.110141 40.3546263,58.747549 C39.0041361,60.2610294 38.5355392,61.2156863 37.4295343,62.0975797 C36.3089768,62.9911152 34.8682598,63.4626225 31.9722733,64.0534621 C31.0641851,64.236826 30.5315564,64.4463848 30.1822917,64.6122856 C30.2870711,64.7054228 30.2870711,64.7374387 30.4529719,64.8102023 C30.8808211,65.0546875 31.4221814,65.2526042 31.8645833,65.3719363 C33.1073836,65.6746324 35.1360294,66.0384498 37.2752758,65.6746324 C39.3970588,65.310815 41.6090686,64.2921263 43.5067402,61.6435356 C43.8414523,61.1894915 43.8676471,60.5055147 43.596967,59.7778799 C43.3262868,59.0677083 42.7325368,58.4303003 42.3250613,58.2643995 C42.0660233,58.1392464 41.7924326,58.0664828 41.5217525,58.0199142 L41.524663,58.0170037 Z" id="Shape"></path>
        </g>
    </g>
</svg>