<?xml version="1.0" encoding="UTF-8"?>
<svg width="75px" height="76px" viewBox="0 0 75 76" version="1.1" xmlns="http://www.w3.org/2000/svg" xmlns:xlink="http://www.w3.org/1999/xlink">
    <title>rabbit-logo</title>
    <defs>
        <filter id="filter-1">
            <feColorMatrix in="SourceGraphic" type="matrix" values="0 0 0 0 0.603922 0 0 0 0 0.603922 0 0 0 0 0.603922 0 0 0 1.000000 0"></feColorMatrix>
        </filter>
    </defs>
    <g id="Page-1" stroke="none" stroke-width="1" fill="none" fill-rule="evenodd">
        <g id="rabbit-logo" transform="translate(-631.000000, -213.000000)" filter="url(#filter-1)">
            <g transform="translate(631.000000, 213.000000)">
                <path d="M71.8627597,30.7634386 L47.9085456,30.7634386 C47.1110165,30.7684705 46.3446941,30.4538779 45.7807447,29.8899284 C45.2167952,29.3259789 44.9022027,28.5596566 44.9072345,27.7621275 L44.9072345,3.80791344 C44.9072503,3.01363041 44.5904442,2.25214976 44.0270435,1.69227023 C43.4636427,1.1323907 42.7001907,0.820365056 41.9059234,0.825360547 L32.9395066,0.825360547 C32.1452393,0.820365056 31.3817874,1.1323907 30.8183866,1.69227023 C30.2549859,2.25214976 29.9381798,3.01363041 29.9381956,3.80791344 L29.9381956,27.7621275 C29.9432274,28.5596566 29.6286348,29.3259789 29.0646853,29.8899284 C28.5007359,30.4538779 27.7344136,30.7684705 26.9368844,30.7634386 L17.9704676,30.7634386 C17.1729385,30.7684705 16.4066162,30.4538779 15.8426667,29.8899284 C15.2787172,29.3259789 14.9641246,28.5596566 14.9691565,27.7621275 L14.9691565,3.80791344 C14.9741884,3.0103843 14.6595958,2.24406199 14.0956464,1.68011251 C13.5316969,1.11616303 12.7653746,0.801570472 11.9678454,0.806484844 L2.9826704,0.806484844 C2.18838737,0.806484844 1.42690672,1.12339265 0.867027197,1.68679343 C0.307147671,2.25019421 -0.0048779821,3.01364612 2.34479103e-13,3.80791344 L2.34479103e-13,72.6880028 C-0.00491437127,73.4855319 0.309678183,74.2518542 0.873627661,74.8158037 C1.43757714,75.3797532 2.20389946,75.6943457 3.00142859,75.6894313 L71.8627597,75.6894313 C72.6602888,75.6943457 73.4266111,75.3797532 73.9905606,74.8158037 C74.5545101,74.2518542 74.8691026,73.4855319 74.8640707,72.6880028 L74.8640707,33.8210242 C74.8844019,33.0138182 74.5765776,32.2328614 74.0109431,31.6566212 C73.4453087,31.0803811 72.6702042,30.7581042 71.8627597,30.7634386 Z M59.8200769,56.1995499 C59.8249875,57.3918175 59.3548541,58.5369641 58.5135481,59.3817902 C57.6722422,60.2266163 56.5290685,60.7015166 55.3367906,60.7015166 L49.3341684,60.7015166 C48.1418904,60.7015166 46.9987168,60.2266163 46.1574109,59.3817902 C45.3161048,58.5369641 44.8459713,57.3918175 44.850882,56.1995499 L44.850882,50.215686 C44.8459713,49.0234184 45.3161048,47.8782719 46.1574109,47.0334458 C46.9987168,46.1886197 48.1418904,45.7137194 49.3341684,45.7137194 L55.3367906,45.7137194 C56.5290685,45.7137194 57.6722422,46.1886197 58.5135481,47.0334458 C59.3548541,47.8782719 59.8249875,49.0234184 59.8200769,50.215686 L59.8200769,56.1995499 L59.8200769,56.1995499 Z" id="Shape" fill="#FF6600" fill-rule="nonzero"></path>
            </g>
        </g>
    </g>
</svg>