<?xml version="1.0" encoding="UTF-8"?>
<svg width="75px" height="76px" viewBox="0 0 75 76" version="1.1" xmlns="http://www.w3.org/2000/svg" xmlns:xlink="http://www.w3.org/1999/xlink">
    <title>rabbit-logo</title>
    <g id="Page-1" stroke="none" stroke-width="1" fill="none" fill-rule="evenodd">
        <g id="rabbit-logo" transform="translate(0.647059, 0.245098)" fill="#C4C4C4" fill-rule="nonzero">
            <path d="M70.453686,30.1602339 L46.9691624,30.1602339 C46.1872711,30.1651672 45.4359746,29.856743 44.883083,29.3038514 C44.3301914,28.7509597 44.0217674,27.9996633 44.0267005,27.2177721 L44.0267005,3.73324847 C44.026716,2.95453962 43.7161218,2.20798996 43.1637681,1.65908846 C42.6114144,1.11018696 41.8629321,0.804279467 41.0842386,0.809177007 L32.2936339,0.809177007 C31.5149405,0.804279467 30.7664582,1.11018696 30.2141045,1.65908846 C29.6617509,2.20798996 29.3511567,2.95453962 29.3511722,3.73324847 L29.3511722,27.2177721 C29.3561053,27.9996633 29.0476812,28.7509597 28.4947895,29.3038514 C27.9418979,29.856743 27.1906016,30.1651672 26.4087102,30.1602339 L17.6181055,30.1602339 C16.8362142,30.1651672 16.0849178,29.856743 15.5320262,29.3038514 C14.9791345,28.7509597 14.6707104,27.9996633 14.6756436,27.2177721 L14.6756436,3.73324847 C14.6805769,2.95135716 14.3721527,2.20006077 13.8192612,1.64716913 C13.2663695,1.09427748 12.5150731,0.785853404 11.7331818,0.790615805 L2.92418667,0.790615805 C2.14547781,0.790615805 1.39892816,1.10136534 0.850026664,1.65371905 C0.301125168,2.20607275 -0.00478233539,2.95455502 -5.56110915e-05,3.73324847 L-5.56110915e-05,71.2627478 C-0.00481801105,72.0446391 0.303606062,72.7959355 0.856497707,73.3488272 C1.40938935,73.9017188 2.16068575,74.2101428 2.94257705,74.2053804 L70.453686,74.2053804 C71.2355773,74.2101428 71.9868736,73.9017188 72.5397653,73.3488272 C73.092657,72.7959355 73.401081,72.0446391 73.3961477,71.2627478 L73.3961477,33.1578669 C73.4160803,32.3664884 73.1142918,31.6008445 72.5597481,31.0359031 C72.0052046,30.4709619 71.2452982,30.1550041 70.453686,30.1602339 Z M58.6471716,55.0975979 C58.6519485,56.2664877 58.1910334,57.3891805 57.3662236,58.2174414 C56.5414139,59.0457023 55.4206554,59.5112908 54.2517555,59.5112908 L48.3668318,59.5112908 C47.1979318,59.5112908 46.0771733,59.0457023 45.2523636,58.2174414 C44.4275537,57.3891805 43.9666385,56.2664877 43.9714156,55.0975979 L43.9714156,49.2310647 C43.9666385,48.0621749 44.4275537,46.9394823 45.2523636,46.1112214 C46.0771733,45.2829605 47.1979318,44.817372 48.3668318,44.817372 L54.2517555,44.817372 C55.4206554,44.817372 56.5414139,45.2829605 57.3662236,46.1112214 C58.1910334,46.9394823 58.6519485,48.0621749 58.6471716,49.2310647 L58.6471716,55.0975979 L58.6471716,55.0975979 Z" id="Shape"></path>
        </g>
    </g>
</svg>