<?xml version="1.0" encoding="UTF-8"?>
<svg width="60px" height="54px" viewBox="0 0 60 54" version="1.1" xmlns="http://www.w3.org/2000/svg" xmlns:xlink="http://www.w3.org/1999/xlink">
    <title>react-logo</title>
    <g id="Page-1" stroke="none" stroke-width="1" fill="none" fill-rule="evenodd">
        <g id="react-logo" transform="translate(0.176471, 0.029412)" fill="#C4C4C4" fill-rule="nonzero">
            <path d="M30.8916382,5.16228627 C35.9583716,0.742369608 40.9810039,-1.10620392 44.0435843,0.667642157 C47.2421431,2.51621667 48.1792931,8.13176373 46.7460049,15.1021971 C46.6569863,15.5358588 46.5598,15.9670706 46.454448,16.3958314 C47.0898314,16.5804029 47.7207225,16.7796745 48.3471225,16.9936471 L48.3471225,16.9936471 L48.7109951,17.121452 C54.8540137,19.317248 58.8015951,22.6848647 58.803998,26.1691382 C58.803998,29.8675108 54.4147069,33.4862559 47.6770294,35.7243902 C47.3201373,35.8419931 46.9554853,35.9559216 46.5830755,36.0661745 C46.7161961,36.6019216 46.833799,37.127052 46.9358853,37.6415657 C48.2674951,44.3780176 47.2421431,49.9151637 44.0876853,51.7453618 C41.0361304,53.5167588 36.1004755,51.7759873 31.1023431,47.4663245 C30.5567961,46.9967284 30.025949,46.5124324 29.509802,46.0134363 C29.1014578,46.4111627 28.6931137,46.7888814 28.2847696,47.1465912 C23.1224833,51.6669598 17.8266696,53.5412588 14.6697608,51.7171863 C11.6133059,49.9506892 10.6577804,44.7969794 11.8828127,38.3043078 C12.01675,37.5954225 12.1706951,36.8942961 12.34465,36.2009275 C11.808902,36.0473902 11.2780549,35.8811941 10.7521078,35.7023392 C4.26801275,33.4813559 0,29.8185098 0,26.1654637 C0,22.6300206 3.9764549,19.2207559 10.1947186,17.0463235 C10.8905363,16.8037676 11.6182059,16.5746863 12.371601,16.3603059 C12.2107127,15.7126716 12.065751,15.0621794 11.9367137,14.4088294 C10.6467549,7.80223039 11.5569539,2.52356667 14.6195343,0.746045098 C17.8144186,-1.10865392 23.1371843,0.882023529 28.447699,5.60819804 C28.7825412,5.9022049 29.1092157,6.20274706 29.4277245,6.50982157 C29.9054873,6.04757549 30.3934578,5.59839706 30.8916382,5.16228627 Z M44.1501618,36.7068657 C41.5273529,37.2996529 38.8668157,37.7110127 36.187452,37.9380235 C34.6871814,40.1368863 33.0406961,42.2323382 31.259148,44.2101882 C31.7577363,44.6842765 32.247749,45.1363127 32.7377618,45.5577235 C37.0106745,49.2438461 40.9736529,50.6416078 42.8271275,49.5660294 C43.6981255,49.0613167 44.4025186,47.7995333 44.7528775,45.9080833 C45.1424382,43.8022529 45.0579108,41.1096324 44.4686706,38.1328039 L44.4686706,38.1328039 L44.3717569,37.6640245 C44.3040627,37.3493275 44.2301971,37.0302745 44.1501618,36.7068657 Z M14.7775637,36.8134441 C14.6166765,37.4667941 14.4737559,38.1201451 14.3488029,38.7734951 C13.2965,44.3253412 14.0682706,48.4647255 15.9229686,49.5366284 C16.7939667,50.0401167 18.2358304,50.0217412 20.0464275,49.38105 L20.0464275,49.38105 L20.404802,49.2477412 C22.3305235,48.4980941 24.4817647,47.1318902 26.629751,45.2502412 C27.0107363,44.9158069 27.3843706,44.570348 27.7494304,44.2114137 C25.932499,42.2412451 24.2465157,40.1542265 22.7022971,37.963749 C20.0376853,37.7605167 17.3899912,37.3761941 14.7775637,36.8134441 Z M32.9533676,38.1499539 C31.7846863,38.2026304 30.5988549,38.2283559 29.4007735,38.2283559 C28.2337265,38.2283559 27.0870961,38.2063059 25.9608833,38.1622039 C27.1197637,39.6934951 28.3080451,41.1182069 29.4987765,42.4057157 C30.7218461,41.0467284 31.8748716,39.626299 32.9533676,38.1499539 Z M29.404449,16.7253647 C27.5926265,16.7253647 25.7991794,16.7951922 24.0498333,16.9274951 C23.0420402,18.408151 22.0918235,19.9243324 21.1991833,21.4760402 L21.1991833,21.4760402 L20.6702627,22.4112784 C19.9745755,23.6632294 19.3170431,24.9350412 18.6976667,26.2267157 L18.6976667,26.2267157 C19.4657627,27.8323245 20.302051,29.4150657 21.2028578,30.9749402 C22.1036647,32.5348147 23.0616402,34.0575294 24.0767833,35.5430853 C25.7906039,35.6545637 27.5632255,35.7121402 29.4007735,35.7121402 C31.2383225,35.7121402 33.0452451,35.6447627 34.7909157,35.5222598 C35.7782912,34.0326206 36.7174833,32.5119471 37.6084902,30.9602402 L37.6084902,30.9602402 L38.1408402,30.0206892 C38.8417539,28.7631196 39.5071265,27.4862118 40.1369559,26.1899647 C39.339052,24.5819049 38.4941882,23.0056971 37.6023647,21.4613402 C36.7105412,19.9169824 35.7660412,18.4061098 34.7688647,16.9287206 C33.0207441,16.7951922 31.2162716,16.7253647 29.404449,16.7253647 Z M17.3623824,29.1863931 C16.6151127,30.9626902 15.9756451,32.7083608 15.4562314,34.3891049 C17.246551,34.7731108 19.0554618,35.0646461 20.8757745,35.2625529 C20.2354912,34.2686431 19.6201167,33.2596255 19.029651,32.235498 C18.449802,31.2317882 17.8940461,30.2154206 17.3623824,29.1863931 Z M41.4881667,29.0957412 L40.9355412,30.1455931 C40.5618608,30.842501 40.1776549,31.5334186 39.7829216,32.218348 C39.2006235,33.2302245 38.5983157,34.229851 37.975999,35.2172265 C39.8200676,35.0007706 41.6515451,34.6879588 43.4629186,34.2800775 C42.8940108,32.5192431 42.2348892,30.7888441 41.4881667,29.0957412 L41.4881667,29.0957412 Z M13.0514931,18.7895441 C12.3711922,18.9822833 11.6966078,19.1950304 11.0277402,19.4277863 C5.70375,21.2837098 2.51131569,24.0204324 2.51131569,26.1654637 C2.51131569,27.1748902 3.24878529,28.420748 4.70412353,29.6690559 C6.32974118,31.0619176 8.69772843,32.340851 11.5643039,33.3208765 C12.0420667,33.4842147 12.5259549,33.6357098 13.0159676,33.7753637 C13.8170127,31.1999147 14.7864696,28.6799 15.9180686,26.2316157 C14.799798,23.8167167 13.8421902,21.3306196 13.0514931,18.7895441 Z M45.7806794,18.8213951 C44.9921549,21.3350608 44.0361235,23.7930784 42.9190049,26.1789392 C44.0796598,28.597051 45.0746373,31.0912461 45.8970578,33.6442853 C46.2327167,33.5438324 46.5634755,33.4409304 46.8844343,33.334352 L46.8844343,33.334352 L47.2452706,33.2122157 C52.8524088,31.2783284 56.2902314,28.3965539 56.2902314,26.1654637 C56.2902314,24.0302324 52.9703941,21.2518588 47.528801,19.3751098 C46.9665108,19.1803294 46.3821706,18.9965745 45.7806794,18.8213951 Z M27.4060676,21.2922804 C29.3765559,20.4779657 31.6436,20.9317941 33.1487755,22.4418873 C34.653951,23.9519794 35.1003853,26.2204912 34.279648,28.1883137 C33.4589108,30.1561353 31.5328814,31.4351441 29.4007735,31.4282583 C28.0057824,31.4265794 26.6686431,30.8705294 25.6838441,29.8825137 C24.6990461,28.894498 24.1473588,27.5555529 24.150262,26.1605637 C24.150262,24.0284441 25.4355794,22.1065961 27.4060676,21.2922804 Z M37.9845745,17.2570294 C38.6044412,18.2272549 39.2002147,19.2097304 39.7718971,20.2044569 L39.7718971,20.2044569 L40.350248,21.21715 C40.7310059,21.895001 41.1021461,22.5782971 41.4636667,23.2670373 C42.1757686,21.6094843 42.8041843,19.9172167 43.3465412,18.1966284 C41.6596716,17.8107441 39.860099,17.4946853 37.9845745,17.2570294 Z M20.825548,17.2496794 C18.961049,17.4824353 17.172502,17.7899186 15.4942078,18.1660029 C16.0050461,19.8173461 16.6273627,21.5274912 17.3623824,23.2658127 L17.3598039,23.2616235 L17.8979931,22.2416853 C18.0802961,21.9016706 18.2651402,21.5630176 18.4525245,21.2257255 L19.022301,20.2179324 C19.599699,19.2142225 20.2007814,18.2248049 20.825548,17.2496794 Z M42.6650324,2.78077843 C40.7613382,1.84752745 36.7880451,3.35865686 32.5442069,7.06108627 L32.5442069,7.06108627 C32.0811441,7.46371275 31.631149,7.87818235 31.1917706,8.30449314 C32.9865775,10.2625196 34.6470127,12.339598 36.1617265,14.5215324 C38.8072284,14.7612118 41.4338059,15.1770118 44.0239833,15.7661647 C44.1187196,15.3766049 44.2069216,14.9858196 44.2885902,14.5938088 C45.5258735,8.57522549 44.7602284,3.9862549 42.791601,2.8482 L42.791601,2.8482 L42.6650324,2.78077843 Z M26.7865549,7.48862255 C22.2012588,3.4129402 17.8511696,1.78119706 15.8837676,2.92292647 C14.0364196,3.99483039 13.3026255,8.26406765 14.4112794,13.9273912 L14.4112794,13.9273912 L14.5362324,14.5352794 C14.622802,14.9396314 14.7159039,15.3421676 14.8155402,15.7428892 C17.4020775,15.1648971 20.0234588,14.7556902 22.6630961,14.5178569 C24.1923833,12.3387343 25.864549,10.2634657 27.6685784,8.30571863 C27.3745706,8.02273627 27.0793373,7.74955392 26.7865549,7.48862255 Z M29.428949,10.1040657 L28.9249186,10.6574451 C27.9179843,11.7798598 26.9185088,12.9954922 25.9388324,14.2912265 C28.2574108,14.1809735 30.5743549,14.1809735 32.8896657,14.2912265 C31.8072431,12.8381951 30.6522029,11.440699 29.428949,10.1040657 L29.428949,10.1040657 Z"></path>
        </g>
    </g>
</svg>