<?xml version="1.0" encoding="UTF-8"?>
<svg width="60px" height="54px" viewBox="0 0 60 54" version="1.1" xmlns="http://www.w3.org/2000/svg" xmlns:xlink="http://www.w3.org/1999/xlink">
    <title>react-logo</title>
    <g id="Page-1" stroke="none" stroke-width="1" fill="none" fill-rule="evenodd">
        <g id="Artboard" transform="translate(-127.000000, -477.000000)" fill="#C4C4C4" fill-rule="nonzero">
            <path d="M158.509471,482.265532 C163.677539,477.757217 168.800624,475.871672 171.924456,477.680995 C175.186986,479.566541 176.142879,485.294399 174.680925,492.404241 C174.590126,492.846576 174.490996,493.286412 174.383537,493.723748 C175.031628,493.912011 175.675137,494.115268 176.314065,494.33352 L176.314065,494.33352 L176.685215,494.463881 C182.951094,496.703593 186.977627,500.138562 186.980078,503.692521 C186.980078,507.464861 182.503001,511.155981 175.63057,513.438878 C175.26654,513.558833 174.894595,513.67504 174.514737,513.787498 C174.65052,514.33396 174.770475,514.869593 174.874603,515.394397 C176.232845,522.265578 175.186986,527.913467 171.969439,529.780269 C168.856853,531.587094 163.822485,529.811507 158.72439,525.415651 C158.167932,524.936663 157.626468,524.442681 157.099998,523.933705 C156.683487,524.339386 156.266976,524.724659 155.850465,525.089523 C150.584933,529.700299 145.183203,531.612084 141.963156,529.75153 C138.845572,527.949703 137.870936,522.692919 139.120469,516.070394 C139.257085,515.347331 139.414109,514.632182 139.591543,513.924946 C139.04508,513.768338 138.503616,513.598818 137.96715,513.416386 C131.353373,511.150983 127,507.41488 127,503.688773 C127,500.082621 131.055984,496.605171 137.398613,494.38725 C138.108347,494.139843 138.85057,493.90618 139.619033,493.687512 C139.454927,493.026925 139.307066,492.363423 139.175448,491.697006 C137.85969,484.958275 138.788093,479.574038 141.911925,477.760966 C145.170707,475.869173 150.599928,477.899664 156.016653,482.720362 C156.358192,483.020249 156.6914,483.326802 157.016279,483.640018 C157.503597,483.168527 158.001327,482.710365 158.509471,482.265532 Z M172.033165,514.441003 C169.3579,515.045646 166.644152,515.465233 163.911201,515.696784 C162.380925,517.939624 160.70151,520.076985 158.884331,522.094392 C159.392891,522.577962 159.892704,523.039039 160.392517,523.468878 C164.750888,527.228723 168.793126,528.65444 170.68367,527.55735 C171.572088,527.042543 172.290569,525.755524 172.647935,523.826245 C173.045287,521.678298 172.959069,518.931825 172.358044,515.89546 L172.358044,515.89546 L172.259192,515.417305 C172.190144,515.096314 172.114801,514.77088 172.033165,514.441003 Z M142.073115,514.549713 C141.90901,515.21613 141.763231,515.882548 141.635779,516.548965 C140.56243,522.211848 141.349636,526.43402 143.241428,527.527361 C144.129846,528.040919 145.600547,528.022176 147.447356,527.368671 L147.447356,527.368671 L147.812898,527.232696 C149.777134,526.468056 151.9714,525.074528 154.162346,523.155246 C154.550951,522.814123 154.932058,522.461755 155.304419,522.095642 C153.451149,520.08607 151.731446,517.957311 150.156343,515.723024 C147.438439,515.515727 144.737791,515.123718 142.073115,514.549713 Z M160.612435,515.912953 C159.42038,515.966683 158.210832,515.992923 156.988789,515.992923 C155.798401,515.992923 154.628838,515.970432 153.480101,515.925448 C154.662159,517.487365 155.874206,518.940571 157.088752,520.25383 C158.336283,518.867663 159.512369,517.418825 160.612435,515.912953 Z M156.992538,494.059872 C155.144479,494.059872 153.315163,494.131096 151.53083,494.266045 C150.502881,495.776314 149.53366,497.322819 148.623167,498.905561 L148.623167,498.905561 L148.083668,499.859504 C147.374067,501.136494 146.703384,502.433742 146.07162,503.75125 L146.07162,503.75125 C146.855078,505.388971 147.708092,507.003367 148.626915,508.594439 C149.545738,510.185511 150.522873,511.73868 151.558319,513.253947 C153.306416,513.367655 155.11449,513.426383 156.988789,513.426383 C158.863089,513.426383 160.70615,513.357658 162.486734,513.232705 C163.493857,511.713273 164.451833,510.162186 165.36066,508.579445 L165.36066,508.579445 L165.903657,507.621103 C166.618589,506.338382 167.297269,505.035936 167.939695,503.713764 C167.125833,502.073543 166.264072,500.465811 165.354412,498.890567 C164.444752,497.315322 163.481362,495.774232 162.464242,494.267295 C160.681159,494.131096 158.840597,494.059872 156.992538,494.059872 Z M144.70963,506.770121 C143.947415,508.581944 143.295158,510.362528 142.765356,512.076887 C144.591482,512.468573 146.436571,512.765939 148.29329,512.967804 C147.640201,511.954016 147.012519,510.924818 146.410244,509.880208 C145.818798,508.856424 145.251927,507.819729 144.70963,506.770121 Z M169.31793,506.677656 L168.754252,507.748505 C168.373098,508.459351 167.981208,509.164087 167.57858,509.862715 C166.984636,510.894829 166.370282,511.914448 165.735519,512.921571 C167.616469,512.700786 169.484576,512.381718 171.332177,511.965679 C170.751891,510.169628 170.079587,508.404621 169.31793,506.677656 L169.31793,506.677656 Z M140.312523,496.165335 C139.618616,496.361929 138.93054,496.578931 138.248295,496.816342 C132.817825,498.709384 129.561542,501.500841 129.561542,503.688773 C129.561542,504.718388 130.313761,505.989163 131.798206,507.262437 C133.456336,508.683156 135.871683,509.987668 138.79559,510.987294 C139.282908,511.153899 139.776474,511.308424 140.276287,511.450871 C141.093353,508.823913 142.082199,506.253498 143.23643,503.756248 C142.095794,501.293051 141.119034,498.757232 140.312523,496.165335 Z M173.696293,496.197823 C172.891998,498.761762 171.916846,501.26894 170.777385,503.702518 C171.961253,506.168992 172.97613,508.713071 173.814999,511.317171 C174.157371,511.214709 174.494745,511.109749 174.822123,511.001039 L174.822123,511.001039 L175.190176,510.87646 C180.909457,508.903895 184.416036,505.964485 184.416036,503.688773 C184.416036,501.510837 181.029802,498.676896 175.479377,496.762612 C174.905841,496.563936 174.309814,496.376506 173.696293,496.197823 Z M154.954189,498.718126 C156.964087,497.887525 159.276472,498.35043 160.811751,499.890725 C162.34703,501.431019 162.802393,503.744901 161.965241,505.75208 C161.128089,507.759258 159.163539,509.063847 156.988789,509.056795 C155.565898,509.055111 154.202016,508.48794 153.197521,507.480164 C152.193027,506.472388 151.630306,505.106664 151.633279,503.683775 C151.633279,501.509013 152.944291,499.548728 154.954189,498.718126 Z M165.744266,494.60217 C166.37653,495.5918 166.984219,496.593925 167.567335,497.608546 L167.567335,497.608546 L168.157253,498.641493 C168.545626,499.332901 168.924189,500.029863 169.29294,500.732378 C170.019284,499.041674 170.660268,497.315561 171.213472,495.560561 C169.492865,495.166959 167.657301,494.844579 165.744266,494.60217 Z M148.242059,494.594673 C146.34027,494.832084 144.515952,495.145717 142.804092,495.529323 C143.325147,497.213693 143.95991,498.958041 144.70963,500.731129 L144.707,500.726856 L145.255953,499.686519 C145.441902,499.339704 145.630443,498.994278 145.821575,498.65024 L146.402747,497.622291 C146.991693,496.598507 147.604797,495.589301 148.242059,494.594673 Z M170.518333,479.836394 C168.576565,478.884478 164.523806,480.42583 160.195091,484.202308 L160.195091,484.202308 C159.722767,484.612987 159.263772,485.035746 158.815606,485.470583 C160.646309,487.46777 162.339953,489.58639 163.884961,491.811963 C166.583373,492.056436 169.262482,492.480552 171.904463,493.081488 C172.001094,492.684137 172.09106,492.285536 172.174362,491.885685 C173.436391,485.74673 172.655433,481.06598 170.647433,479.905164 L170.647433,479.905164 Z M154.322286,484.638395 C149.645284,480.481199 145.208193,478.816821 143.201443,479.981385 C141.317148,481.074727 140.568678,485.429349 141.699505,491.205939 L141.699505,491.205939 L141.826957,491.825985 C141.915258,492.238424 142.010222,492.649011 142.111851,493.057747 C144.750119,492.468195 147.423928,492.050804 150.116358,491.808214 C151.676231,489.585509 153.38184,487.468735 155.22195,485.471833 C154.922062,485.183191 154.620924,484.904545 154.322286,484.638395 Z M157.017528,487.306147 L156.503417,487.870594 C155.476344,489.015457 154.456879,490.255402 153.457609,491.577051 C155.822559,491.464593 158.185842,491.464593 160.547459,491.577051 C159.443388,490.094959 158.265247,488.669513 157.017528,487.306147 L157.017528,487.306147 Z" id="react-logo"></path>
        </g>
    </g>
</svg>