<?xml version="1.0" encoding="UTF-8"?>
<svg width="50px" height="51px" viewBox="0 0 50 51" version="1.1" xmlns="http://www.w3.org/2000/svg" xmlns:xlink="http://www.w3.org/1999/xlink">
    <title>ts-logo</title>
    <g id="Page-1" stroke="none" stroke-width="1" fill="none" fill-rule="evenodd">
        <g id="Artboard" transform="translate(-38.000000, -478.000000)" fill="#C9C8C8" fill-rule="nonzero">
            <path d="M83.1171875,478.75 C85.8138904,478.75 88,480.93611 88,483.632812 L88,523.867188 C88,526.56389 85.8138904,528.75 83.1171875,528.75 L42.8828125,528.75 C40.1861096,528.75 38,526.56389 38,523.867188 L38,483.632812 C38,480.93611 40.1861096,478.75 42.8828125,478.75 L83.1171875,478.75 Z M77.4640625,501.992188 C76.3024414,501.992188 75.2020508,502.116992 74.162793,502.366504 C73.1235352,502.616016 72.209082,503.005566 71.4193359,503.535156 C70.6296875,504.064844 70.0056641,504.739551 69.547168,505.559473 C69.0886719,506.379297 68.859375,507.35957 68.859375,508.500293 C68.859375,509.956738 69.2796875,511.199316 70.1203125,512.228027 C70.9608398,513.256641 72.2370117,514.127441 73.9488281,514.84043 C74.6212891,515.11543 75.2479492,515.385254 75.8287109,515.650098 C76.4094727,515.914941 76.9113281,516.189941 77.334082,516.475098 C77.7569336,516.760254 78.090625,517.070898 78.3352539,517.407031 C78.5797852,517.743066 78.7020508,518.125 78.7020508,518.552832 C78.7020508,518.868555 78.6255859,519.161328 78.4727539,519.43125 C78.3199219,519.701172 78.0880859,519.935352 77.7773438,520.133984 C77.4666016,520.332617 77.0793945,520.487891 76.6158203,520.599902 C76.1521484,520.712012 75.609668,520.767969 74.9880859,520.767969 C73.928418,520.767969 72.8790039,520.582129 71.8396484,520.210352 C70.8003906,519.838672 69.8375,519.281055 68.9510742,518.5375 L68.9510742,523.42627 C69.7458008,523.833691 70.6857422,524.13916 71.7708984,524.342871 C72.8560547,524.546582 73.999707,524.648438 75.2020508,524.648438 C76.3738281,524.648438 77.4869141,524.536426 78.5415039,524.312305 C79.5960937,524.088281 80.5208008,523.719043 81.3155273,523.204687 C82.1102539,522.69043 82.7394531,522.018164 83.2030273,521.188086 C83.6666016,520.358008 83.8984375,519.331934 83.8984375,518.109766 C83.8984375,517.223633 83.7660156,516.44707 83.5010742,515.77998 C83.2361328,515.112891 82.8541016,514.519629 82.3547852,514.000195 C81.8555664,513.480762 81.2569336,513.014746 80.5589844,512.602246 C79.8610352,512.189746 79.0739258,511.800195 78.1976562,511.433594 C77.5557617,511.16875 76.9800781,510.911621 76.4706055,510.662109 C75.9611328,510.4125 75.528125,510.15791 75.1714844,509.898242 C74.8148437,509.638477 74.5397461,509.363477 74.3461914,509.073242 C74.1526367,508.78291 74.0557617,508.454492 74.0557617,508.087793 C74.0557617,507.751758 74.1423828,507.44873 74.315625,507.178809 C74.4888672,506.908887 74.7333984,506.677246 75.0492187,506.483691 C75.3651367,506.290234 75.7522461,506.139941 76.2107422,506.033008 C76.6693359,505.926074 77.1787109,505.872656 77.7391602,505.872656 C78.1466797,505.872656 78.5771484,505.903223 79.0305664,505.964258 C79.4839844,506.025391 79.9399414,506.119629 80.3985352,506.246875 C80.8570312,506.374219 81.3027344,506.534668 81.7358398,506.728125 C82.1688477,506.92168 82.56875,507.145703 82.9355469,507.400391 L82.9355469,502.832422 C82.1917969,502.547266 81.3791992,502.335938 80.4978516,502.198438 C79.6165039,502.060938 78.6051758,501.992188 77.4640625,501.992188 Z M67.0039062,502.480469 L49.5234375,502.480469 L49.5234375,506.492383 L55.7642578,506.492383 L55.7642578,524.355469 L60.7324219,524.355469 L60.7324219,506.492383 L67.0039062,506.492383 L67.0039062,502.480469 Z" id="ts-logo"></path>
        </g>
    </g>
</svg>