<?xml version="1.0" encoding="UTF-8"?>
<svg width="51px" height="51px" viewBox="0 0 51 51" version="1.1" xmlns="http://www.w3.org/2000/svg" xmlns:xlink="http://www.w3.org/1999/xlink">
    <title>ts-logo</title>
    <g id="Page-1" stroke="none" stroke-width="1" fill="none" fill-rule="evenodd">
        <g id="ts-logo" transform="translate(0.921569, 0.500000)" fill="#C9C8C8" fill-rule="nonzero">
            <path d="M44.2325368,0.735294118 C46.8763631,0.735294118 49.0196078,2.87853922 49.0196078,5.52236471 L49.0196078,44.9678314 C49.0196078,47.6116569 46.8763631,49.754902 44.2325368,49.754902 L4.78707108,49.754902 C2.14324471,49.754902 0,47.6116569 0,44.9678314 L0,5.52236471 C0,2.87853922 2.14324471,0.735294118 4.78707108,0.735294118 L44.2325368,0.735294118 Z M38.6902574,23.5217529 C37.5514131,23.5217529 36.4725988,23.6441098 35.4537186,23.8887294 C34.4348384,24.133349 33.5383157,24.5152608 32.7640548,25.0344667 C31.9898897,25.5537686 31.3781021,26.2152461 30.9285961,27.0190912 C30.4790901,27.8228402 30.2542892,28.7838922 30.2542892,29.902248 C30.2542892,31.3301353 30.6663603,32.548349 31.4905025,33.5568892 C32.3145488,34.5653343 33.5656977,35.4190598 35.2439491,36.1180686 C35.9032246,36.3876765 36.5175973,36.6522098 37.0869715,36.9118608 C37.6563458,37.1715108 38.1483609,37.4411186 38.5628255,37.7206843 C38.9773859,38.000249 39.3045343,38.304802 39.5443666,38.6343441 C39.7841031,38.9637902 39.9039714,39.3382353 39.9039714,39.7576784 C39.9039714,40.0672108 39.8290058,40.3542431 39.6791705,40.6188725 C39.5293352,40.883502 39.302045,41.1130902 38.9973959,41.3078275 C38.6927467,41.5025657 38.3131319,41.6547951 37.8586474,41.7646098 C37.4040671,41.8745216 36.8722235,41.9293814 36.2628293,41.9293814 C35.2239392,41.9293814 34.1951019,41.7471853 33.1761259,41.382698 C32.1572457,41.0183059 31.2132353,40.4716225 30.3441904,39.7426471 L30.3441904,44.5355588 C31.1233341,44.9349912 32.0448453,45.2344706 33.1087239,45.4341873 C34.1726026,45.6339039 35.2938304,45.7337627 36.4725988,45.7337627 C37.6214001,45.7337627 38.7126609,45.6239471 39.7465725,45.4042206 C40.780484,45.1845892 41.6870596,44.8225912 42.4662032,44.3183206 C43.245347,43.8141471 43.8622089,43.1550627 44.3166934,42.3412608 C44.771178,41.5274588 44.9984681,40.5215039 44.9984681,39.3233 C44.9984681,38.4545422 44.8686427,37.6932059 44.6088963,37.0391961 C44.3491498,36.3851873 43.9746094,35.8035578 43.4850835,35.2943088 C42.9956533,34.7850608 42.4087584,34.3281824 41.7244945,33.9237706 C41.0402306,33.5193588 40.2685547,33.1374461 39.4094669,32.7780333 C38.7801585,32.5183824 38.2157628,32.2662951 37.7162799,32.0216755 C37.2167969,31.7769608 36.7922794,31.5273627 36.4426318,31.2727863 C36.092984,31.0181147 35.8232805,30.7485069 35.633521,30.4639627 C35.4437615,30.1793235 35.348786,29.8573451 35.348786,29.4978363 C35.348786,29.1683902 35.4337086,28.8713039 35.6035539,28.6066755 C35.7733992,28.3420461 36.0131357,28.1149471 36.3227634,27.9251873 C36.632487,27.7355235 37.012006,27.5881775 37.461512,27.4833412 C37.9111136,27.3785039 38.4105009,27.3261333 38.959961,27.3261333 C39.3594899,27.3261333 39.781518,27.356101 40.2260455,27.4159392 C40.6705729,27.4758735 41.1175896,27.5682637 41.5671914,27.6930147 C42.0166973,27.8178618 42.4536612,27.9751647 42.8782743,28.1648284 C43.3027919,28.3545882 43.6948529,28.5742186 44.0544577,28.8239127 L44.0544577,24.3455118 C43.3252911,24.0659471 42.5286267,23.8587627 41.6645604,23.7239588 C40.800494,23.5891549 39.8089959,23.5217529 38.6902574,23.5217529 Z M28.4352022,24.0004598 L11.2974877,24.0004598 L11.2974877,27.9337088 L17.415939,27.9337088 L17.415939,45.4465382 L22.2866881,45.4465382 L22.2866881,27.9337088 L28.4352022,27.9337088 L28.4352022,24.0004598 Z"></path>
        </g>
    </g>
</svg>