<?xml version="1.0" encoding="UTF-8"?>
<svg width="52px" height="53px" viewBox="0 0 52 53" version="1.1" xmlns="http://www.w3.org/2000/svg" xmlns:xlink="http://www.w3.org/1999/xlink">
    <title>vite-logo</title>
    <g id="Page-1" stroke="none" stroke-width="1" fill="none" fill-rule="evenodd">
        <g id="Artboard" transform="translate(-314.000000, -477.000000)" fill-rule="nonzero">
            <g id="vite-logo" transform="translate(314.000000, 478.000000)">
                <path d="M51.190869,7.6692542 L27.0791718,50.785159 C26.5813384,51.6753359 25.3023562,51.6805776 24.7970534,50.7947252 L0.20727112,7.67340827 C-0.343219326,6.70805191 0.482265394,5.53873982 1.5762014,5.73426947 L25.713701,10.0487115 C25.8676768,10.0762305 26.0253219,10.0759684 26.1792977,10.0479121 L49.8120318,5.74045471 C50.9023117,5.54174071 51.7316845,6.70199771 51.190869,7.6692542 Z" id="Path" fill="#C4C4C4"></path>
                <path d="M37.2116985,0.0752712468 L19.3683244,3.57161018 C19.0750496,3.62907265 18.8579109,3.87760929 18.8402201,4.17587684 L17.7426018,22.7137277 C17.7167863,23.1503639 18.1177786,23.4892417 18.5439313,23.3909593 L23.5117812,22.2444618 C23.9765916,22.1372684 24.3965852,22.5466476 24.3010547,23.0140789 L22.8251145,30.2415076 C22.7257837,30.7279402 23.1824695,31.1438715 23.6575013,30.9995929 L26.7258791,30.0673511 C27.2015662,29.9229415 27.658645,30.3400522 27.5580038,30.8268779 L25.2124606,42.1795483 C25.0656921,42.8896718 26.0102519,43.2769046 26.4041679,42.6680776 L26.6673028,42.2614504 L41.2070763,13.2448041 C41.4505547,12.7589612 41.0306921,12.2049758 40.497084,12.3079496 L35.383514,13.2948626 C34.9029784,13.3875102 34.4941234,12.9399975 34.6297532,12.4698536 L37.9672939,0.899859631 C38.1030547,0.428922926 37.6927583,-0.0189775534 37.2116985,0.0752712468 Z" id="Path" stroke="#FFFFFF" stroke-width="2" fill="#B5B5B5"></path>
            </g>
        </g>
    </g>
</svg>