<?xml version="1.0" encoding="UTF-8"?>
<svg width="52px" height="53px" viewBox="0 0 52 53" version="1.1" xmlns="http://www.w3.org/2000/svg" xmlns:xlink="http://www.w3.org/1999/xlink">
    <title>vite-logo</title>
    <g id="Page-1" stroke="none" stroke-width="1" fill="none" fill-rule="evenodd">
        <g id="vite-logo" transform="translate(0.352941, 1.009804)" fill-rule="nonzero">
            <path d="M50.1871265,7.51887667 L26.5482076,49.7893716 C26.0601357,50.662094 24.8062316,50.6672329 24.3108367,49.7987502 L0.20320698,7.52294928 C-0.336489535,6.57652148 0.47280921,5.43013708 1.54529549,5.62183281 L25.2095108,9.85167794 C25.3604675,9.87865735 25.5150215,9.87840039 25.6659781,9.85089422 L48.8353253,5.62789677 C49.9042272,5.43307913 50.7173377,6.57058599 50.1871265,7.51887667 Z" id="Path" fill="#C4C4C4"></path>
            <path d="M36.4820574,0.07379534 L18.9885533,3.50157861 C18.701029,3.55791436 18.4881479,3.80157774 18.470804,4.0939969 L17.3947076,22.2683605 C17.3693983,22.6964352 17.762528,23.0286683 18.1803248,22.932313 L23.0507659,21.8082959 C23.5064624,21.7032043 23.9182208,22.1045565 23.8245634,22.5628225 L22.3775632,29.6485369 C22.2801801,30.1254316 22.7279113,30.5332074 23.1936287,30.3917577 L26.2018423,29.4777952 C26.6682022,29.3362172 27.1163186,29.7451492 27.0176508,30.2224293 L24.7180986,41.3524983 C24.5742079,42.0486978 25.500247,42.4283378 25.8864391,41.8314486 L26.1444145,41.4327945 L40.3990944,12.9851021 C40.6377987,12.5087855 40.2261687,11.9656625 39.7030235,12.0666173 L34.6897196,13.034179 C34.2186063,13.12501 33.817768,12.6862721 33.9507384,12.2253467 L37.2228372,0.882215325 C37.355936,0.420512673 36.9536846,-0.0186054445 36.4820574,0.07379534 Z" id="Path" stroke="#FFFFFF" stroke-width="1.96078431" fill="#B5B5B5"></path>
            <path d="M36.4820574,0.07379534 L18.9885533,3.50157861 C18.701029,3.55791436 18.4881479,3.80157774 18.470804,4.0939969 L17.3947076,22.2683605 C17.3693983,22.6964352 17.762528,23.0286683 18.1803248,22.932313 L23.0507659,21.8082959 C23.5064624,21.7032043 23.9182208,22.1045565 23.8245634,22.5628225 L22.3775632,29.6485369 C22.2801801,30.1254316 22.7279113,30.5332074 23.1936287,30.3917577 L26.2018423,29.4777952 C26.6682022,29.3362172 27.1163186,29.7451492 27.0176508,30.2224293 L24.7180986,41.3524983 C24.5742079,42.0486978 25.500247,42.4283378 25.8864391,41.8314486 L26.1444145,41.4327945 L40.3990944,12.9851021 C40.6377987,12.5087855 40.2261687,11.9656625 39.7030235,12.0666173 L34.6897196,13.034179 C34.2186063,13.12501 33.817768,12.6862721 33.9507384,12.2253467 L37.2228372,0.882215325 C37.355936,0.420512673 36.9536846,-0.0186054445 36.4820574,0.07379534 Z" id="Path" stroke="#FFFFFF" stroke-width="1.96078431" fill="#B5B5B5"></path>
        </g>
    </g>
</svg>